<svg version="1.1" xmlns="http://www.w3.org/2000/svg" viewBox="0 0 955.1599998474121 1312.001708984375" width="1910.3199996948242" height="2624.00341796875">
  <!-- svg-source:excalidraw -->
  
  <defs>
    <style class="style-fonts">
      @font-face {
        font-family: "Virgil";
        src: url("https://excalidraw.com/Virgil.woff2");
      }
      @font-face {
        font-family: "Cascadia";
        src: url("https://excalidraw.com/Cascadia.woff2");
      }
      @font-face {
        font-family: "Assistant";
        src: url("https://excalidraw.com/Assistant-Regular.woff2");
      }
    </style>
    
  </defs>
  <rect x="0" y="0" width="955.1599998474121" height="1312.001708984375" fill="#ffffff"></rect><g transform="translate(227 1272.501708984375) rotate(0 14.389999389648438 12.5)"><text x="0" y="0" font-family="Virgil, Segoe UI Emoji" font-size="20px" fill="#1e1e1e" text-anchor="start" style="white-space: pre;" direction="ltr" dominant-baseline="text-before-edge">B2</text></g><g stroke-linecap="round"><g transform="translate(217 1285.2360565360896) rotate(0 -37.5 0.6280601415435285)"><path d="M-0.01 -1.05 C-12.41 -0.7, -62.49 1.04, -75.06 1.47 M-1.47 1.01 C-13.99 1.03, -63.55 -0.87, -76.03 -0.54" stroke="#1e1e1e" stroke-width="2" fill="none"></path></g><g transform="translate(217 1285.2360565360896) rotate(0 -37.5 0.6280601415435285)"><path d="M-52.46 -8.85 C-60.13 -6.88, -63.9 -5.34, -76.03 -0.54 M-52.46 -8.85 C-59.99 -6.73, -67.42 -4.1, -76.03 -0.54" stroke="#1e1e1e" stroke-width="2" fill="none"></path></g><g transform="translate(217 1285.2360565360896) rotate(0 -37.5 0.6280601415435285)"><path d="M-52.63 8.25 C-60.17 5.96, -63.9 3.23, -76.03 -0.54 M-52.63 8.25 C-60.11 4.84, -67.48 1.94, -76.03 -0.54" stroke="#1e1e1e" stroke-width="2" fill="none"></path></g></g><mask></mask><g stroke-linecap="round"><g transform="translate(241.53878268614977 1265.501708984375) rotate(0 0.8728055258175971 -26.5)"><path d="M-0.51 -0.62 C-0.51 -9.21, 0.41 -43.39, 0.92 -52.02 M1.43 1.67 C1.72 -7.2, 3.07 -44.27, 3.2 -53.63" stroke="#1e1e1e" stroke-width="2" fill="none"></path></g><g transform="translate(241.53878268614977 1265.501708984375) rotate(0 0.8728055258175971 -26.5)"><path d="M-8.5 -24.31 C-6.62 -16.7, -0.93 -4.99, -0.51 -0.62 M-8.5 -24.31 C-5.93 -16.17, -3.12 -8.81, -0.51 -0.62" stroke="#1e1e1e" stroke-width="2" fill="none"></path></g><g transform="translate(241.53878268614977 1265.501708984375) rotate(0 0.8728055258175971 -26.5)"><path d="M8.59 -23.91 C4.02 -16.52, 3.25 -4.97, -0.51 -0.62 M8.59 -23.91 C5.2 -15.74, 2.05 -8.52, -0.51 -0.62" stroke="#1e1e1e" stroke-width="2" fill="none"></path></g><g transform="translate(241.53878268614977 1265.501708984375) rotate(0 0.8728055258175971 -26.5)"><path d="M11.12 -29.91 C7.19 -40.28, 6.87 -46.49, 3.2 -53.63 M11.12 -29.91 C7.89 -38.15, 5.15 -47.32, 3.2 -53.63" stroke="#1e1e1e" stroke-width="2" fill="none"></path></g><g transform="translate(241.53878268614977 1265.501708984375) rotate(0 0.8728055258175971 -26.5)"><path d="M-5.98 -30.37 C-3.45 -40.49, 2.69 -46.53, 3.2 -53.63 M-5.98 -30.37 C-3.24 -38.61, -0.02 -47.62, 3.2 -53.63" stroke="#1e1e1e" stroke-width="2" fill="none"></path></g></g><mask></mask><g mask="url(#mask-L5Hu-z78oeR-UHeSckJWj)" stroke-linecap="round"><g transform="translate(731 1180.501708984375) rotate(0 0 -31)"><path d="M-1.04 -0.7 C-1.07 -11.32, -0.06 -52.15, 0.23 -62.52 M0.61 1.54 C0.41 -8.41, -0.54 -50.64, -0.6 -61.25" stroke="#1e1e1e" stroke-width="2" fill="none"></path></g><g transform="translate(731 1180.501708984375) rotate(0 0 -31)"><path d="M8.31 -37.89 C3.94 -45.35, 1.29 -52.38, -0.6 -61.25 M8.31 -37.89 C5.42 -43.24, 4.99 -49.18, -0.6 -61.25" stroke="#1e1e1e" stroke-width="2" fill="none"></path></g><g transform="translate(731 1180.501708984375) rotate(0 0 -31)"><path d="M-8.79 -37.63 C-7.47 -45.03, -4.44 -52.14, -0.6 -61.25 M-8.79 -37.63 C-7.9 -43.09, -4.55 -49.09, -0.6 -61.25" stroke="#1e1e1e" stroke-width="2" fill="none"></path></g></g><mask id="mask-L5Hu-z78oeR-UHeSckJWj"><rect x="0" y="0" fill="#fff" width="831" height="1342.501708984375"></rect><rect x="705.8999996185303" y="1137.001708984375" fill="#000" width="50.20000076293945" height="25" opacity="1"></rect></mask><g transform="translate(705.8999996185303 1137.001708984375) rotate(0 24.881603024167475 13.010550234895277)"><text x="25.100000381469727" y="0" font-family="Virgil, Segoe UI Emoji" font-size="20px" fill="#1e1e1e" text-anchor="middle" style="white-space: pre;" direction="ltr" dominant-baseline="text-before-edge">north</text></g><g mask="url(#mask-xXAP6yzdCYRL8mK8Qanm_)" stroke-linecap="round"><g transform="translate(731 1180.501708984375) rotate(0 51.5 0.5)"><path d="M-0.85 0.06 C16.24 0.17, 84.62 1.24, 102.08 1.56 M0.9 -0.96 C18.41 -1.28, 87.19 -0.46, 104.31 -0.27" stroke="#1e1e1e" stroke-width="2" fill="none"></path></g><g transform="translate(731 1180.501708984375) rotate(0 51.5 0.5)"><path d="M80.72 8.02 C86.88 4.5, 93.84 5.42, 104.31 -0.27 M80.72 8.02 C89.8 5.73, 99.43 1.49, 104.31 -0.27" stroke="#1e1e1e" stroke-width="2" fill="none"></path></g><g transform="translate(731 1180.501708984375) rotate(0 51.5 0.5)"><path d="M80.91 -9.08 C87.15 -8.16, 94.06 -2.8, 104.31 -0.27 M80.91 -9.08 C90.08 -4.81, 99.63 -2.49, 104.31 -0.27" stroke="#1e1e1e" stroke-width="2" fill="none"></path></g></g><mask id="mask-xXAP6yzdCYRL8mK8Qanm_"><rect x="0" y="0" fill="#fff" width="934" height="1281.501708984375"></rect><rect x="759.2800006866455" y="1168.501708984375" fill="#000" width="46.439998626708984" height="25" opacity="1"></rect></mask><g transform="translate(759.2800006866455 1168.501708984375) rotate(0 23.448013736000348 12.263404244573849)"><text x="23.219999313354492" y="0" font-family="Virgil, Segoe UI Emoji" font-size="20px" fill="#1e1e1e" text-anchor="middle" style="white-space: pre;" direction="ltr" dominant-baseline="text-before-edge">east</text></g><g mask="url(#mask-l7hWD_hSU1dpuo8CunI5w)" stroke-linecap="round"><g transform="translate(730 1179.501708984375) rotate(0 -49.5 0)"><path d="M0.8 0.61 C-15.6 0.61, -81.28 0.22, -97.85 0 M-0.23 -0.11 C-16.75 0.09, -81.7 1.48, -98.2 1.54" stroke="#1e1e1e" stroke-width="2" fill="none"></path></g><g transform="translate(730 1179.501708984375) rotate(0 -49.5 0)"><path d="M-74.83 -7.33 C-81.95 -2.17, -91.12 -0.42, -98.2 1.54 M-74.83 -7.33 C-80.35 -5.13, -85.79 -2.58, -98.2 1.54" stroke="#1e1e1e" stroke-width="2" fill="none"></path></g><g transform="translate(730 1179.501708984375) rotate(0 -49.5 0)"><path d="M-74.59 9.77 C-81.8 8.97, -91.05 4.76, -98.2 1.54 M-74.59 9.77 C-80.16 7.82, -85.65 6.22, -98.2 1.54" stroke="#1e1e1e" stroke-width="2" fill="none"></path></g></g><mask id="mask-l7hWD_hSU1dpuo8CunI5w"><rect x="0" y="0" fill="#fff" width="929" height="1279.501708984375"></rect><rect x="657.8600006103516" y="1167.001708984375" fill="#000" width="45.279998779296875" height="25" opacity="1"></rect></mask><g transform="translate(657.8600006103516 1167.001708984375) rotate(0 23.442038602847617 13.212504406757603)"><text x="22.639999389648438" y="0" font-family="Virgil, Segoe UI Emoji" font-size="20px" fill="#1e1e1e" text-anchor="middle" style="white-space: pre;" direction="ltr" dominant-baseline="text-before-edge">west</text></g><g mask="url(#mask-Pe3x0cXORb-28XHbQnCkp)" stroke-linecap="round"><g transform="translate(730 1181.501708984375) rotate(0 0.5 29.5)"><path d="M-0.98 -0.34 C-0.73 9.55, 0.98 50.19, 1.35 60.04 M0.7 -1.56 C0.84 7.94, 0.61 48.22, 0.59 58.46" stroke="#1e1e1e" stroke-width="2" fill="none"></path></g><g transform="translate(730 1181.501708984375) rotate(0 0.5 29.5)"><path d="M-7.87 34.94 C-5.85 42.39, -1.11 48.99, 0.59 58.46 M-7.87 34.94 C-6.11 41.18, -2.96 47.57, 0.59 58.46" stroke="#1e1e1e" stroke-width="2" fill="none"></path></g><g transform="translate(730 1181.501708984375) rotate(0 0.5 29.5)"><path d="M9.23 35 C6.31 42.29, 6.11 48.88, 0.59 58.46 M9.23 35 C6.25 41.15, 4.65 47.53, 0.59 58.46" stroke="#1e1e1e" stroke-width="2" fill="none"></path></g></g><mask id="mask-Pe3x0cXORb-28XHbQnCkp"><rect x="0" y="0" fill="#fff" width="831" height="1340.501708984375"></rect><rect x="703.2600002288818" y="1198.501708984375" fill="#000" width="54.47999954223633" height="25" opacity="1"></rect></mask><g transform="translate(703.2600002288818 1198.501708984375) rotate(0 26.926153988018655 12.23836788401934)"><text x="27.239999771118164" y="0" font-family="Virgil, Segoe UI Emoji" font-size="20px" fill="#1e1e1e" text-anchor="middle" style="white-space: pre;" direction="ltr" dominant-baseline="text-before-edge">south</text></g><g transform="translate(225 1176.501708984375) rotate(0 21.200000762939453 12.5)"><text x="0" y="0" font-family="Virgil, Segoe UI Emoji" font-size="20px" fill="#1e1e1e" text-anchor="start" style="white-space: pre;" direction="ltr" dominant-baseline="text-before-edge">TI 1</text></g><g stroke-linecap="round"><g transform="translate(245.4316453840911 1163.501708984375) rotate(0 0.14364532300101018 -26.5)"><path d="M0.69 0.6 C0.61 -8.23, -0.72 -43.25, -0.89 -52.22 M-0.4 -0.13 C-0.1 -9.37, 1.38 -45.29, 1.2 -53.93" stroke="#1e1e1e" stroke-width="2" fill="none"></path></g><g transform="translate(245.4316453840911 1163.501708984375) rotate(0 0.14364532300101018 -26.5)"><path d="M-8.56 -22.63 C-4.95 -18.46, -2.18 -11.37, 0.69 0.6 M-8.56 -22.63 C-5.47 -15.94, -4.39 -9.11, 0.69 0.6" stroke="#1e1e1e" stroke-width="2" fill="none"></path></g><g transform="translate(245.4316453840911 1163.501708984375) rotate(0 0.14364532300101018 -26.5)"><path d="M8.53 -23.14 C7.6 -18.74, 5.82 -11.51, 0.69 0.6 M8.53 -23.14 C6.76 -16.38, 2.98 -9.4, 0.69 0.6" stroke="#1e1e1e" stroke-width="2" fill="none"></path></g><g transform="translate(245.4316453840911 1163.501708984375) rotate(0 0.14364532300101018 -26.5)"><path d="M9.39 -30.31 C8.06 -38.51, 6.18 -43.89, 1.2 -53.93 M9.39 -30.31 C7.85 -37, 3.97 -43.48, 1.2 -53.93" stroke="#1e1e1e" stroke-width="2" fill="none"></path></g><g transform="translate(245.4316453840911 1163.501708984375) rotate(0 0.14364532300101018 -26.5)"><path d="M-7.71 -30.57 C-4.49 -38.8, -1.81 -44.12, 1.2 -53.93 M-7.71 -30.57 C-4.4 -37.13, -3.41 -43.53, 1.2 -53.93" stroke="#1e1e1e" stroke-width="2" fill="none"></path></g></g><mask></mask><g stroke-linecap="round"><g transform="translate(276.0551797744041 1190.3633123714378) rotate(0 47.472410112797945 -0.9029148565012974)"><path d="M-1.14 -0.97 C14.78 -0.91, 79.73 -0.42, 95.8 -0.74 M0.47 1.14 C16.27 0.98, 79.6 -1.76, 95.31 -2.31" stroke="#1e1e1e" stroke-width="2" fill="none"></path></g><g transform="translate(276.0551797744041 1190.3633123714378) rotate(0 47.472410112797945 -0.9029148565012974)"><path d="M22.39 -9.41 C13.03 -5.45, 8.74 -3.53, -1.14 -0.97 M22.39 -9.41 C17.8 -7.12, 13.34 -5.94, -1.14 -0.97" stroke="#1e1e1e" stroke-width="2" fill="none"></path></g><g transform="translate(276.0551797744041 1190.3633123714378) rotate(0 47.472410112797945 -0.9029148565012974)"><path d="M22.32 7.69 C13.14 6.08, 8.87 2.42, -1.14 -0.97 M22.32 7.69 C17.79 6.4, 13.35 4, -1.14 -0.97" stroke="#1e1e1e" stroke-width="2" fill="none"></path></g><g transform="translate(276.0551797744041 1190.3633123714378) rotate(0 47.472410112797945 -0.9029148565012974)"><path d="M72.17 7.15 C78.19 5.72, 89.12 1.8, 95.31 -2.31 M72.17 7.15 C77.39 5.73, 82.7 3.16, 95.31 -2.31" stroke="#1e1e1e" stroke-width="2" fill="none"></path></g><g transform="translate(276.0551797744041 1190.3633123714378) rotate(0 47.472410112797945 -0.9029148565012974)"><path d="M71.5 -9.93 C77.58 -5.79, 88.73 -4.14, 95.31 -2.31 M71.5 -9.93 C76.81 -7.78, 82.27 -6.78, 95.31 -2.31" stroke="#1e1e1e" stroke-width="2" fill="none"></path></g></g><mask></mask><g transform="translate(220.79999923706055 1080.001708984375) rotate(0 25.610000610351562 12.5)"><text x="0" y="0" font-family="Virgil, Segoe UI Emoji" font-size="20px" fill="#1e1e1e" text-anchor="start" style="white-space: pre;" direction="ltr" dominant-baseline="text-before-edge">TI 2</text></g><g stroke-linecap="round"><g transform="translate(245.15792781162554 1072.501708984375) rotate(0 0.2013012725593626 -25.5)"><path d="M0.86 0.26 C1.02 -8.53, 1.21 -43.64, 1.07 -52.11 M-0.15 -0.64 C-0.09 -9.38, 0.61 -42.48, 0.47 -51.15" stroke="#1e1e1e" stroke-width="1" fill="none"></path></g><g transform="translate(245.15792781162554 1072.501708984375) rotate(0 0.2013012725593626 -25.5)"><path d="M-7.53 -23.28 C-4.39 -14.99, -4.09 -9.52, 0.86 0.26 M-7.53 -23.28 C-5.47 -14.39, -1.96 -6.6, 0.86 0.26" stroke="#1e1e1e" stroke-width="1" fill="none"></path></g><g transform="translate(245.15792781162554 1072.501708984375) rotate(0 0.2013012725593626 -25.5)"><path d="M9.57 -23.17 C7.45 -14.78, 2.49 -9.35, 0.86 0.26 M9.57 -23.17 C5.86 -14.44, 3.62 -6.68, 0.86 0.26" stroke="#1e1e1e" stroke-width="1" fill="none"></path></g><g transform="translate(245.15792781162554 1072.501708984375) rotate(0 0.2013012725593626 -25.5)"><path d="M8.91 -27.62 C6.63 -33.68, 1.75 -42.7, 0.47 -51.15 M8.91 -27.62 C5.19 -34.71, 3.04 -42.78, 0.47 -51.15" stroke="#1e1e1e" stroke-width="1" fill="none"></path></g><g transform="translate(245.15792781162554 1072.501708984375) rotate(0 0.2013012725593626 -25.5)"><path d="M-8.19 -27.7 C-5.21 -33.86, -4.83 -42.85, 0.47 -51.15 M-8.19 -27.7 C-6.15 -34.65, -2.54 -42.69, 0.47 -51.15" stroke="#1e1e1e" stroke-width="1" fill="none"></path></g></g><mask></mask><g transform="translate(220.38999938964844 995.001708984375) rotate(0 25.299999237060547 12.5)"><text x="0" y="0" font-family="Virgil, Segoe UI Emoji" font-size="20px" fill="#1e1e1e" text-anchor="start" style="white-space: pre;" direction="ltr" dominant-baseline="text-before-edge">TI 3</text></g><g stroke-linecap="round"><g transform="translate(243.82613163404466 983.501708984375) rotate(0 0.1542707631176654 -25)"><path d="M0.88 -0.68 C0.76 -9.11, -0.45 -42.01, -0.65 -50.41 M-0.11 1.57 C0.13 -6.7, 1.78 -40.44, 1.56 -49.08" stroke="#1e1e1e" stroke-width="1" fill="none"></path></g><g transform="translate(243.82613163404466 983.501708984375) rotate(0 0.1542707631176654 -25)"><path d="M-8.39 -23.9 C-6.67 -18.5, -3.39 -10.91, 0.88 -0.68 M-8.39 -23.9 C-6.13 -19.36, -5.42 -13.59, 0.88 -0.68" stroke="#1e1e1e" stroke-width="1" fill="none"></path></g><g transform="translate(243.82613163404466 983.501708984375) rotate(0 0.1542707631176654 -25)"><path d="M8.71 -24.43 C5.22 -18.74, 3.3 -10.99, 0.88 -0.68 M8.71 -24.43 C7.34 -19.87, 4.44 -13.98, 0.88 -0.68" stroke="#1e1e1e" stroke-width="1" fill="none"></path></g><g transform="translate(243.82613163404466 983.501708984375) rotate(0 0.1542707631176654 -25)"><path d="M9.72 -25.45 C6.06 -34.18, 4.04 -40.85, 1.56 -49.08 M9.72 -25.45 C8.65 -30.91, 5.68 -35.05, 1.56 -49.08" stroke="#1e1e1e" stroke-width="1" fill="none"></path></g><g transform="translate(243.82613163404466 983.501708984375) rotate(0 0.1542707631176654 -25)"><path d="M-7.38 -25.73 C-5.83 -34.5, -2.65 -41.08, 1.56 -49.08 M-7.38 -25.73 C-4.83 -31.04, -4.19 -35.12, 1.56 -49.08" stroke="#1e1e1e" stroke-width="1" fill="none"></path></g></g><mask></mask><g transform="translate(221.70000076293945 906.001708984375) rotate(0 24.889999389648438 12.5)"><text x="0" y="0" font-family="Virgil, Segoe UI Emoji" font-size="20px" fill="#1e1e1e" text-anchor="start" style="white-space: pre;" direction="ltr" dominant-baseline="text-before-edge">TI 4</text></g><g stroke-linecap="round"><g transform="translate(245.13934873413575 898.501708984375) rotate(0 -0.2521228182870914 -24.75)"><path d="M-0.09 0.4 C-0.18 -7.74, -0.84 -40.84, -0.98 -49.08 M-0.8 0.13 C-0.68 -8.14, -0.15 -41.5, 0 -49.83" stroke="#1e1e1e" stroke-width="1" fill="none"></path></g><g transform="translate(245.13934873413575 898.501708984375) rotate(0 -0.2521228182870914 -24.75)"><path d="M-8.97 -22.71 C-6.35 -18.52, -4.37 -13.44, -0.09 0.4 M-8.97 -22.71 C-5.37 -13.63, -1.81 -4.85, -0.09 0.4" stroke="#1e1e1e" stroke-width="1" fill="none"></path></g><g transform="translate(245.13934873413575 898.501708984375) rotate(0 -0.2521228182870914 -24.75)"><path d="M7.96 -23.01 C6.88 -18.77, 5.16 -13.62, -0.09 0.4 M7.96 -23.01 C5.04 -13.84, 2.08 -4.95, -0.09 0.4" stroke="#1e1e1e" stroke-width="1" fill="none"></path></g><g transform="translate(245.13934873413575 898.501708984375) rotate(0 -0.2521228182870914 -24.75)"><path d="M8.08 -26.43 C7.09 -32.42, 5.36 -37.51, 0 -49.83 M8.08 -26.43 C5.36 -35.29, 2.4 -44.43, 0 -49.83" stroke="#1e1e1e" stroke-width="1" fill="none"></path></g><g transform="translate(245.13934873413575 898.501708984375) rotate(0 -0.2521228182870914 -24.75)"><path d="M-8.85 -26.72 C-6.14 -32.63, -4.17 -37.66, 0 -49.83 M-8.85 -26.72 C-5.04 -35.44, -1.49 -44.47, 0 -49.83" stroke="#1e1e1e" stroke-width="1" fill="none"></path></g></g><mask></mask><g transform="translate(223.11000061035156 823.001708984375) rotate(0 24.670000076293945 12.5)"><text x="0" y="0" font-family="Virgil, Segoe UI Emoji" font-size="20px" fill="#1e1e1e" text-anchor="start" style="white-space: pre;" direction="ltr" dominant-baseline="text-before-edge">TI 5</text></g><g transform="translate(222.32999992370605 745.001708984375) rotate(0 24.889999389648438 12.5)"><text x="0" y="0" font-family="Virgil, Segoe UI Emoji" font-size="20px" fill="#1e1e1e" text-anchor="start" style="white-space: pre;" direction="ltr" dominant-baseline="text-before-edge">TI 6</text></g><g transform="translate(229.32999992370605 668.001708984375) rotate(0 23.869998931884766 12.5)"><text x="0" y="0" font-family="Virgil, Segoe UI Emoji" font-size="20px" fill="#1e1e1e" text-anchor="start" style="white-space: pre;" direction="ltr" dominant-baseline="text-before-edge">TI 7</text></g><g stroke-linecap="round"><g transform="translate(246.28631604498526 812.501708984375) rotate(0 0.2525261195134476 -19.5)"><path d="M0.27 -0.53 C0.36 -6.95, 0.24 -32.49, 0.3 -38.85 M-0.25 0.39 C-0.23 -6.18, -0.33 -33.07, -0.23 -39.74" stroke="#1e1e1e" stroke-width="1" fill="none"></path></g><g transform="translate(246.28631604498526 812.501708984375) rotate(0 0.2525261195134476 -19.5)"><path d="M-6.39 -18.86 C-5.68 -14.56, -2.78 -9.32, 0.27 -0.53 M-6.39 -18.86 C-4.14 -11.95, -1.49 -5.67, 0.27 -0.53" stroke="#1e1e1e" stroke-width="1" fill="none"></path></g><g transform="translate(246.28631604498526 812.501708984375) rotate(0 0.2525261195134476 -19.5)"><path d="M6.95 -18.85 C4.25 -14.52, 3.75 -9.29, 0.27 -0.53 M6.95 -18.85 C4.5 -11.94, 2.44 -5.67, 0.27 -0.53" stroke="#1e1e1e" stroke-width="1" fill="none"></path></g><g transform="translate(246.28631604498526 812.501708984375) rotate(0 0.2525261195134476 -19.5)"><path d="M6.36 -21.39 C3.8 -26.42, 3.31 -30.54, -0.23 -39.74 M6.36 -21.39 C3.91 -27.41, 1.88 -34.07, -0.23 -39.74" stroke="#1e1e1e" stroke-width="1" fill="none"></path></g><g transform="translate(246.28631604498526 812.501708984375) rotate(0 0.2525261195134476 -19.5)"><path d="M-6.98 -21.44 C-6.14 -26.49, -3.22 -30.6, -0.23 -39.74 M-6.98 -21.44 C-4.72 -27.45, -2.05 -34.09, -0.23 -39.74" stroke="#1e1e1e" stroke-width="1" fill="none"></path></g></g><mask></mask><g stroke-linecap="round"><g transform="translate(251.52918525109146 737.501708984375) rotate(0 0.046184971360617055 -20.5)"><path d="M-0.11 0.52 C-0.14 -6.34, -0.09 -33.81, -0.04 -40.73 M-0.82 0.31 C-0.95 -6.74, -0.66 -34.77, -0.54 -41.56" stroke="#1e1e1e" stroke-width="1" fill="none"></path></g><g transform="translate(251.52918525109146 737.501708984375) rotate(0 0.046184971360617055 -20.5)"><path d="M-7.1 -18.75 C-3.81 -12.67, -1.97 -5.89, -0.11 0.52 M-7.1 -18.75 C-4.89 -12.7, -3.22 -7.8, -0.11 0.52" stroke="#1e1e1e" stroke-width="1" fill="none"></path></g><g transform="translate(251.52918525109146 737.501708984375) rotate(0 0.046184971360617055 -20.5)"><path d="M6.92 -18.74 C5.62 -12.68, 2.87 -5.9, -0.11 0.52 M6.92 -18.74 C5.04 -12.76, 2.62 -7.86, -0.11 0.52" stroke="#1e1e1e" stroke-width="1" fill="none"></path></g><g transform="translate(251.52918525109146 737.501708984375) rotate(0 0.046184971360617055 -20.5)"><path d="M6.22 -22.21 C4.88 -28.79, 2.21 -34.66, -0.54 -41.56 M6.22 -22.21 C4.27 -27.48, 1.93 -33.83, -0.54 -41.56" stroke="#1e1e1e" stroke-width="1" fill="none"></path></g><g transform="translate(251.52918525109146 737.501708984375) rotate(0 0.046184971360617055 -20.5)"><path d="M-7.8 -22.4 C-4.55 -28.9, -2.63 -34.71, -0.54 -41.56 M-7.8 -22.4 C-5.66 -27.55, -3.92 -33.84, -0.54 -41.56" stroke="#1e1e1e" stroke-width="1" fill="none"></path></g></g><mask></mask><g stroke-linecap="round"><g transform="translate(284 691.0316399802356) rotate(0 58.5 -0.2649654979302909)"><path d="M1.03 -1.04 C20.61 -1.05, 98.35 0.18, 117.53 0.3 M0.12 1.03 C19.57 0.65, 97.12 -1.4, 116.86 -1.39" stroke="#1e1e1e" stroke-width="2" fill="none"></path></g><g transform="translate(284 691.0316399802356) rotate(0 58.5 -0.2649654979302909)"><path d="M24.62 -9.32 C15.66 -5.69, 11.52 -5.51, 1.03 -1.04 M24.62 -9.32 C16.52 -7.04, 10.15 -3.96, 1.03 -1.04" stroke="#1e1e1e" stroke-width="2" fill="none"></path></g><g transform="translate(284 691.0316399802356) rotate(0 58.5 -0.2649654979302909)"><path d="M24.42 7.78 C15.48 6.15, 11.4 1.08, 1.03 -1.04 M24.42 7.78 C16.38 4.66, 10.07 2.35, 1.03 -1.04" stroke="#1e1e1e" stroke-width="2" fill="none"></path></g><g transform="translate(284 691.0316399802356) rotate(0 58.5 -0.2649654979302909)"><path d="M93.5 7.5 C98.92 5.45, 109.2 0.36, 116.86 -1.39 M93.5 7.5 C100.21 4.82, 108.67 2.48, 116.86 -1.39" stroke="#1e1e1e" stroke-width="2" fill="none"></path></g><g transform="translate(284 691.0316399802356) rotate(0 58.5 -0.2649654979302909)"><path d="M93.24 -9.59 C98.79 -6.39, 109.16 -6.24, 116.86 -1.39 M93.24 -9.59 C100.04 -6.88, 108.58 -3.82, 116.86 -1.39" stroke="#1e1e1e" stroke-width="2" fill="none"></path></g></g><mask></mask><g transform="translate(408 666.501708984375) rotate(0 68.12999725341797 25)"><text x="0" y="0" font-family="Virgil, Segoe UI Emoji" font-size="20px" fill="#1e1e1e" text-anchor="start" style="white-space: pre;" direction="ltr" dominant-baseline="text-before-edge">Tropical Cave</text><text x="0" y="25" font-family="Virgil, Segoe UI Emoji" font-size="20px" fill="#1e1e1e" text-anchor="start" style="white-space: pre;" direction="ltr" dominant-baseline="text-before-edge">Alcove</text></g><g transform="translate(689 618.501708984375) rotate(0 32.77000045776367 12.5)"><text x="0" y="0" font-family="Virgil, Segoe UI Emoji" font-size="20px" fill="#1971c2" text-anchor="start" style="white-space: pre;" direction="ltr" dominant-baseline="text-before-edge">journal</text></g><g mask="url(#mask-WDTNfYsVvOcNsXB9udcq-)" stroke-linecap="round"><g transform="translate(547 668.1253087536375) rotate(0 70.52466393012776 -12.156701139702704)"><path d="M-0.64 0.54 C22.74 -3.68, 117.27 -20.37, 140.68 -24.34 M1.22 -0.23 C24.38 -4.32, 116.06 -18.68, 139.54 -22.81" stroke="#1971c2" stroke-width="2" fill="none"></path></g><g transform="translate(547 668.1253087536375) rotate(0 70.52466393012776 -12.156701139702704)"><path d="M117.76 -10.54 C125.82 -15.12, 132.14 -20.56, 139.54 -22.81 M117.76 -10.54 C127 -14.7, 135.26 -19.16, 139.54 -22.81" stroke="#1971c2" stroke-width="2" fill="none"></path></g><g transform="translate(547 668.1253087536375) rotate(0 70.52466393012776 -12.156701139702704)"><path d="M114.97 -27.42 C124.09 -26.36, 131.34 -26.18, 139.54 -22.81 M114.97 -27.42 C125.29 -25, 134.64 -22.91, 139.54 -22.81" stroke="#1971c2" stroke-width="2" fill="none"></path></g></g><mask id="mask-WDTNfYsVvOcNsXB9udcq-"><rect x="0" y="0" fill="#fff" width="788.0493278602555" height="792.4387110330429"></rect><rect x="557.0946674396491" y="643.4686076139346" fill="#000" width="120.85999298095703" height="25" opacity="1"></rect></mask><g transform="translate(557.0946674396492 643.4686076139346) rotate(0 59.92686742506919 12.756883627548802)"><text x="60.429996490478516" y="0" font-family="Virgil, Segoe UI Emoji" font-size="20px" fill="#1971c2" text-anchor="middle" style="white-space: pre;" direction="ltr" dominant-baseline="text-before-edge">take journal</text></g><g transform="translate(374.79999923706055 1179.001708984375) rotate(0 26.139999389648438 12.5)"><text x="0" y="0" font-family="Virgil, Segoe UI Emoji" font-size="20px" fill="#1e1e1e" text-anchor="start" style="white-space: pre;" direction="ltr" dominant-baseline="text-before-edge">TI 8</text></g><g stroke-linecap="round"><g transform="translate(397.0131133006196 1168.501708984375) rotate(0 -61.00655665030979 -35.2222498078354)"><path d="M-0.28 0.18 C-20.8 -11.4, -102.6 -57.99, -122.89 -69.64 M1.77 -0.77 C-18.39 -12.67, -99.88 -59.52, -120.64 -71.34" stroke="#1e1e1e" stroke-width="2" fill="none"></path></g><g transform="translate(397.0131133006196 1168.501708984375) rotate(0 -61.00655665030979 -35.2222498078354)"><path d="M-24.93 -4 C-16.81 -4.08, -7.95 -1.28, -0.28 0.18 M-24.93 -4 C-15.52 -3.43, -7.11 -0.91, -0.28 0.18" stroke="#1e1e1e" stroke-width="2" fill="none"></path></g><g transform="translate(397.0131133006196 1168.501708984375) rotate(0 -61.00655665030979 -35.2222498078354)"><path d="M-16.48 -18.86 C-11.06 -14.24, -4.88 -6.73, -0.28 0.18 M-16.48 -18.86 C-10.17 -12.95, -4.81 -5.08, -0.28 0.18" stroke="#1e1e1e" stroke-width="2" fill="none"></path></g><g transform="translate(397.0131133006196 1168.501708984375) rotate(0 -61.00655665030979 -35.2222498078354)"><path d="M-96 -67.08 C-103.51 -69.95, -110.29 -69.83, -120.64 -71.34 M-96 -67.08 C-104.3 -69.61, -113.64 -70.13, -120.64 -71.34" stroke="#1e1e1e" stroke-width="2" fill="none"></path></g><g transform="translate(397.0131133006196 1168.501708984375) rotate(0 -61.00655665030979 -35.2222498078354)"><path d="M-104.5 -52.24 C-109.29 -59.8, -113.37 -64.39, -120.64 -71.34 M-104.5 -52.24 C-109.68 -60.11, -115.96 -65.97, -120.64 -71.34" stroke="#1e1e1e" stroke-width="2" fill="none"></path></g></g><mask></mask><g stroke-linecap="round"><g transform="translate(395.97419185800186 1213.501708984375) rotate(0 -0.8993431953613822 25)"><path d="M0.69 -0.61 C0.1 7.72, -2.25 42.63, -2.65 51.12 M-0.41 1.68 C-0.7 10.22, -0.05 41.84, -0.38 49.59" stroke="#1e1e1e" stroke-width="2" fill="none"></path></g><g transform="translate(395.97419185800186 1213.501708984375) rotate(0 -0.8993431953613822 25)"><path d="M7.66 23.39 C3.8 13.04, 4.09 5.66, 0.69 -0.61 M7.66 23.39 C5.97 15.25, 2.5 8.35, 0.69 -0.61" stroke="#1e1e1e" stroke-width="2" fill="none"></path></g><g transform="translate(395.97419185800186 1213.501708984375) rotate(0 -0.8993431953613822 25)"><path d="M-9.4 22.26 C-6.87 12.23, -0.2 5.28, 0.69 -0.61 M-9.4 22.26 C-5.47 14.35, -3.32 7.82, 0.69 -0.61" stroke="#1e1e1e" stroke-width="2" fill="none"></path></g><g transform="translate(395.97419185800186 1213.501708984375) rotate(0 -0.8993431953613822 25)"><path d="M-8.77 26.04 C-6.43 33.38, -0.4 43.78, -0.38 49.59 M-8.77 26.04 C-5.12 33.43, -3.53 42.18, -0.38 49.59" stroke="#1e1e1e" stroke-width="2" fill="none"></path></g><g transform="translate(395.97419185800186 1213.501708984375) rotate(0 -0.8993431953613822 25)"><path d="M8.33 26.16 C4.27 33.55, 3.91 43.91, -0.38 49.59 M8.33 26.16 C6.35 33.65, 2.31 42.36, -0.38 49.59" stroke="#1e1e1e" stroke-width="2" fill="none"></path></g></g><mask></mask><g transform="translate(378.6299991607666 1277.001708984375) rotate(0 14.079999923706055 12.5)"><text x="0" y="0" font-family="Virgil, Segoe UI Emoji" font-size="20px" fill="#1e1e1e" text-anchor="start" style="white-space: pre;" direction="ltr" dominant-baseline="text-before-edge">B3</text></g><g transform="translate(115.6299991607666 1273.001708984375) rotate(0 9.979999542236328 12.5)"><text x="0" y="0" font-family="Virgil, Segoe UI Emoji" font-size="20px" fill="#1e1e1e" text-anchor="start" style="white-space: pre;" direction="ltr" dominant-baseline="text-before-edge">B1</text></g><g stroke-linecap="round"><g transform="translate(262 1282.501708984375) rotate(0 56 2)"><path d="M0.58 -0.18 C19.57 0.57, 94.26 2.74, 112.95 3.62 M-0.57 -1.33 C18.43 -0.33, 93.69 4.19, 112.5 4.96" stroke="#1e1e1e" stroke-width="2" fill="none"></path></g><g transform="translate(262 1282.501708984375) rotate(0 56 2)"><path d="M24.34 -7.96 C18.84 -4.59, 13.39 -3.33, 0.58 -0.18 M24.34 -7.96 C14.69 -4.6, 6.56 -1.3, 0.58 -0.18" stroke="#1e1e1e" stroke-width="2" fill="none"></path></g><g transform="translate(262 1282.501708984375) rotate(0 56 2)"><path d="M23.78 9.13 C18.53 8.81, 13.2 6.38, 0.58 -0.18 M23.78 9.13 C14.24 5.8, 6.33 2.42, 0.58 -0.18" stroke="#1e1e1e" stroke-width="2" fill="none"></path></g><g transform="translate(262 1282.501708984375) rotate(0 56 2)"><path d="M88.59 12.29 C93.5 12.17, 98.35 10.17, 112.5 4.96 M88.59 12.29 C97.5 9.76, 108.02 7.16, 112.5 4.96" stroke="#1e1e1e" stroke-width="2" fill="none"></path></g><g transform="translate(262 1282.501708984375) rotate(0 56 2)"><path d="M89.48 -4.79 C94.07 -1.22, 98.72 0.47, 112.5 4.96 M89.48 -4.79 C98.14 -0.63, 108.32 3.45, 112.5 4.96" stroke="#1e1e1e" stroke-width="2" fill="none"></path></g></g><mask></mask><g transform="translate(226.13000106811523 582.40966796875) rotate(0 26.139999389648438 12.5)"><text x="0" y="0" font-family="Virgil, Segoe UI Emoji" font-size="20px" fill="#1e1e1e" text-anchor="start" style="white-space: pre;" direction="ltr" dominant-baseline="text-before-edge">TI 8</text></g><g transform="translate(99.80000686645508 454.90966796875) rotate(0 60.15999984741211 25)"><text x="120.31999969482422" y="0" font-family="Virgil, Segoe UI Emoji" font-size="20px" fill="#2f9e44" text-anchor="end" style="white-space: pre;" direction="ltr" dominant-baseline="text-before-edge">Vault</text><text x="120.31999969482422" y="25" font-family="Virgil, Segoe UI Emoji" font-size="20px" fill="#2f9e44" text-anchor="end" style="white-space: pre;" direction="ltr" dominant-baseline="text-before-edge">Antechamber</text></g><g stroke-linecap="round"><g transform="translate(253.60702365830377 663.90966796875) rotate(0 0.8272255297414404 -27.75)"><path d="M-0.63 0.24 C-0.61 -9.31, 0.6 -47.19, 0.82 -56.29 M1.23 -0.68 C1.57 -10.18, 2.79 -45.93, 3.09 -55.17" stroke="#1e1e1e" stroke-width="2" fill="none"></path></g><g transform="translate(253.60702365830377 663.90966796875) rotate(0 0.8272255297414404 -27.75)"><path d="M-8.6 -23.46 C-5.16 -16.32, -4.02 -8.06, -0.63 0.24 M-8.6 -23.46 C-6.35 -14, -1.52 -4.93, -0.63 0.24" stroke="#1e1e1e" stroke-width="2" fill="none"></path></g><g transform="translate(253.60702365830377 663.90966796875) rotate(0 0.8272255297414404 -27.75)"><path d="M8.5 -23.04 C5.81 -16.14, 0.83 -8.03, -0.63 0.24 M8.5 -23.04 C4.01 -13.75, 2.09 -4.85, -0.63 0.24" stroke="#1e1e1e" stroke-width="2" fill="none"></path></g><g transform="translate(253.60702365830377 663.90966796875) rotate(0 0.8272255297414404 -27.75)"><path d="M10.85 -31.4 C8.27 -41.35, 3.78 -50.08, 3.09 -55.17 M10.85 -31.4 C7.27 -40.67, 5.89 -50.33, 3.09 -55.17" stroke="#1e1e1e" stroke-width="2" fill="none"></path></g><g transform="translate(253.60702365830377 663.90966796875) rotate(0 0.8272255297414404 -27.75)"><path d="M-6.24 -31.98 C-2.69 -41.63, -1.06 -50.16, 3.09 -55.17 M-6.24 -31.98 C-3.08 -41.01, 2.28 -50.44, 3.09 -55.17" stroke="#1e1e1e" stroke-width="2" fill="none"></path></g></g><mask></mask><g stroke-linecap="round"><g transform="translate(254.22322723526918 574.90966796875) rotate(0 9.54901448704095 -31.922267780755078)"><path d="M-0.84 0.09 C2.38 -10.59, 15.84 -54.48, 19.26 -65 M0.93 -0.91 C4.01 -11.4, 15.35 -53.4, 18.4 -64.08" stroke="#1e1e1e" stroke-width="2" fill="none"></path></g><g transform="translate(254.22322723526918 574.90966796875) rotate(0 9.54901448704095 -31.922267780755078)"><path d="M-2.12 -24.88 C-1.79 -17.23, -3.49 -9.18, -0.84 0.09 M-2.12 -24.88 C-1.21 -15.55, -1.39 -6.78, -0.84 0.09" stroke="#1e1e1e" stroke-width="2" fill="none"></path></g><g transform="translate(254.22322723526918 574.90966796875) rotate(0 9.54901448704095 -31.922267780755078)"><path d="M14.23 -19.86 C9.77 -13.8, 3.24 -7.24, -0.84 0.09 M14.23 -19.86 C9.17 -12.38, 3.01 -5.44, -0.84 0.09" stroke="#1e1e1e" stroke-width="2" fill="none"></path></g><g transform="translate(254.22322723526918 574.90966796875) rotate(0 9.54901448704095 -31.922267780755078)"><path d="M20.37 -39.15 C20.13 -46.26, 17.47 -52.94, 18.4 -64.08 M20.37 -39.15 C20.12 -48.06, 18.74 -57.52, 18.4 -64.08" stroke="#1e1e1e" stroke-width="2" fill="none"></path></g><g transform="translate(254.22322723526918 574.90966796875) rotate(0 9.54901448704095 -31.922267780755078)"><path d="M3.89 -43.72 C8.48 -49.36, 10.68 -54.69, 18.4 -64.08 M3.89 -43.72 C9.66 -50.95, 14.3 -58.74, 18.4 -64.08" stroke="#1e1e1e" stroke-width="2" fill="none"></path></g></g><mask></mask><g transform="translate(10 616.90966796875) rotate(0 14.920000076293945 12.5)"><text x="0" y="0" font-family="Virgil, Segoe UI Emoji" font-size="20px" fill="#1971c2" text-anchor="start" style="white-space: pre;" direction="ltr" dominant-baseline="text-before-edge">orb</text></g><g mask="url(#mask-wLvZnHkuBatqgb0Ir-Z52)" stroke-linecap="round"><g transform="translate(121.79918441767165 509.1468717668346) rotate(0 -38.47084824765744 50.92580692948303)"><path d="M0 -1.12 C-12.88 16.18, -64.79 85.33, -77.44 102.65 M-1.46 0.91 C-14.52 17.97, -66.21 84.28, -78.64 100.94" stroke="#1971c2" stroke-width="2" fill="none"></path></g><g transform="translate(121.79918441767165 509.1468717668346) rotate(0 -38.47084824765744 50.92580692948303)"><path d="M-71.16 77.09 C-75.39 83.11, -74.35 92.56, -78.64 100.94 M-71.16 77.09 C-74.25 85.74, -77.6 95.95, -78.64 100.94" stroke="#1971c2" stroke-width="2" fill="none"></path></g><g transform="translate(121.79918441767165 509.1468717668346) rotate(0 -38.47084824765744 50.92580692948303)"><path d="M-57.58 87.48 C-65.61 90.52, -68.47 96.99, -78.64 100.94 M-57.58 87.48 C-65.82 92.12, -74.29 98.41, -78.64 100.94" stroke="#1971c2" stroke-width="2" fill="none"></path></g></g><mask id="mask-wLvZnHkuBatqgb0Ir-Z52"><rect x="0" y="0" fill="#fff" width="298.74088091298654" height="710.9984856258006"></rect><rect x="40.748341968354055" y="547.5726786963176" fill="#000" width="85.15998840332031" height="25" opacity="1"></rect></mask><g transform="translate(40.74834196835411 547.5726786963174) rotate(0 41.730028748828914 12.339760643616387)"><text x="42.579994201660156" y="0" font-family="Virgil, Segoe UI Emoji" font-size="20px" fill="#1971c2" text-anchor="middle" style="white-space: pre;" direction="ltr" dominant-baseline="text-before-edge">take orb</text></g><g stroke-linecap="round"><g transform="translate(267.41702127982217 449.50459553429266) rotate(0 -0.20306939169029192 -35.02934385136405)"><path d="M0.73 1 C0.9 -10.72, 0.33 -59.25, 0.01 -71.22 M-0.35 0.49 C-0.21 -11.06, -0.99 -58.56, -0.72 -70.29" stroke="#1e1e1e" stroke-width="2" fill="none"></path></g><g transform="translate(267.41702127982217 449.50459553429266) rotate(0 -0.20306939169029192 -35.02934385136405)"><path d="M-7.99 -22.43 C-4.61 -16.75, -6.35 -13.73, 0.73 1 M-7.99 -22.43 C-5.14 -17.19, -2.94 -11.7, 0.73 1" stroke="#1e1e1e" stroke-width="2" fill="none"></path></g><g transform="translate(267.41702127982217 449.50459553429266) rotate(0 -0.20306939169029192 -35.02934385136405)"><path d="M9.11 -22.55 C8.81 -16.74, 3.4 -13.7, 0.73 1 M9.11 -22.55 C7.93 -17.25, 6.11 -11.73, 0.73 1" stroke="#1e1e1e" stroke-width="2" fill="none"></path></g><g transform="translate(267.41702127982217 449.50459553429266) rotate(0 -0.20306939169029192 -35.02934385136405)"><path d="M7.82 -46.79 C7.83 -51.09, 2.38 -58.16, -0.72 -70.29 M7.82 -46.79 C6.52 -52.57, 4.66 -58.13, -0.72 -70.29" stroke="#1e1e1e" stroke-width="2" fill="none"></path></g><g transform="translate(267.41702127982217 449.50459553429266) rotate(0 -0.20306939169029192 -35.02934385136405)"><path d="M-9.29 -46.81 C-5.6 -51.21, -7.37 -58.27, -0.72 -70.29 M-9.29 -46.81 C-6.55 -52.62, -4.39 -58.18, -0.72 -70.29" stroke="#1e1e1e" stroke-width="2" fill="none"></path></g></g><mask></mask><g stroke-linecap="round" transform="translate(381 441) rotate(0 41 35)"><path d="M52.5 9 C60.72 15.16, 67.47 23.61, 71.5 27 M52.5 9 C57.96 12.78, 62.9 17.97, 71.5 27 M71.5 27 C83.37 36.34, 82.33 35.78, 71.5 45 M71.5 27 C83.23 34.19, 81.14 35.19, 71.5 45 M71.5 45 C66.12 48.71, 62.72 52.73, 52.5 61 M71.5 45 C63.69 50.84, 57.39 56.92, 52.5 61 M52.5 61 C43.12 70.86, 41.87 70.42, 31.5 61 M52.5 61 C42.65 68.51, 41.25 68.03, 31.5 61 M31.5 61 C25.78 56.28, 16.35 49.73, 10.5 45 M31.5 61 C25.74 56.27, 17.36 50.76, 10.5 45 M10.5 45 C0.02 35.12, -0.74 35.37, 10.5 27 M10.5 45 C0.03 35.76, 2 36.81, 10.5 27 M10.5 27 C15.55 21.77, 19.54 18.54, 31.5 9 M10.5 27 C16.44 20.2, 23.6 15.77, 31.5 9 M31.5 9 C43.52 0.55, 42.17 1.61, 52.5 9 M31.5 9 C42.31 0.35, 43.56 -1.32, 52.5 9" stroke="#2f9e44" stroke-width="2" fill="none"></path></g><g transform="translate(417.8899998664856 463.5) rotate(0 4.110000133514404 12.5)"><text x="4.110000133514404" y="0" font-family="Virgil, Segoe UI Emoji" font-size="20px" fill="#2f9e44" text-anchor="middle" style="white-space: pre;" direction="ltr" dominant-baseline="text-before-edge">-</text></g><g stroke-linecap="round" transform="translate(532 443) rotate(0 41 35)"><path d="M52.5 9 C57.57 15.27, 64.61 23.24, 71.5 27 M52.5 9 C59.97 15.67, 66.16 22.32, 71.5 27 M71.5 27 C82.55 37.62, 81.55 36.24, 71.5 45 M71.5 27 C79.73 38.02, 81.23 36.46, 71.5 45 M71.5 45 C66.77 49.36, 57.15 57.13, 52.5 61 M71.5 45 C64.62 49.88, 57.23 56.67, 52.5 61 M52.5 61 C41.63 70.05, 41.26 69.65, 31.5 61 M52.5 61 C42.85 70.96, 41.61 71.26, 31.5 61 M31.5 61 C27.92 56.39, 21.61 55.09, 10.5 45 M31.5 61 C23.73 55.65, 15.87 47.62, 10.5 45 M10.5 45 C0.43 36.07, 0.45 36.54, 10.5 27 M10.5 45 C0.23 34.78, -0.36 34.65, 10.5 27 M10.5 27 C16.1 22.27, 21.91 18.08, 31.5 9 M10.5 27 C14.7 23.78, 19.57 19.29, 31.5 9 M31.5 9 C41.52 -0.14, 40.46 0.04, 52.5 9 M31.5 9 C40.33 1.28, 40.17 1.72, 52.5 9" stroke="#2f9e44" stroke-width="2" fill="none"></path></g><g transform="translate(566.9099998474121 465.5) rotate(0 6.090000152587891 12.5)"><text x="6.090000152587891" y="0" font-family="Virgil, Segoe UI Emoji" font-size="20px" fill="#2f9e44" text-anchor="middle" style="white-space: pre;" direction="ltr" dominant-baseline="text-before-edge">9</text></g><g stroke-linecap="round" transform="translate(686 445) rotate(0 41 35)"><path d="M52.5 9 C58.69 14.42, 65.14 19.57, 71.5 27 M52.5 9 C56.46 12.99, 60.48 17.2, 71.5 27 M71.5 27 C83.3 35.23, 80.39 37.96, 71.5 45 M71.5 27 C82.16 36.64, 83.95 35.64, 71.5 45 M71.5 45 C65.62 50.26, 60.66 51.03, 52.5 61 M71.5 45 C67.03 48.02, 63.25 51.91, 52.5 61 M52.5 61 C42.66 68.35, 43.16 71.58, 31.5 61 M52.5 61 C40.62 69.25, 44.1 70.78, 31.5 61 M31.5 61 C24.42 55.22, 17.9 51.81, 10.5 45 M31.5 61 C25.61 57.07, 20.23 52.55, 10.5 45 M10.5 45 C0.12 37.53, -1 34.63, 10.5 27 M10.5 45 C0.71 34.82, -1.71 34.56, 10.5 27 M10.5 27 C18.97 20.62, 26.17 11.2, 31.5 9 M10.5 27 C17.62 20.84, 23.48 16.15, 31.5 9 M31.5 9 C42.85 -0.06, 43.7 -0.63, 52.5 9 M31.5 9 C42.07 1.99, 43.11 -0.95, 52.5 9" stroke="#2f9e44" stroke-width="2" fill="none"></path></g><g transform="translate(721.8400001525879 467.5) rotate(0 5.159999847412109 12.5)"><text x="5.159999847412109" y="0" font-family="Virgil, Segoe UI Emoji" font-size="20px" fill="#2f9e44" text-anchor="middle" style="white-space: pre;" direction="ltr" dominant-baseline="text-before-edge">*</text></g><g stroke-linecap="round" transform="translate(230 445) rotate(0 41 35)"><path d="M52.5 9 C57.65 14.78, 66.45 19.5, 71.5 27 M52.5 9 C58.51 15.29, 66.36 22.16, 71.5 27 M71.5 27 C80.91 36.49, 81.6 36.66, 71.5 45 M71.5 27 C80.11 37.33, 83.82 34.62, 71.5 45 M71.5 45 C66.19 48.19, 59.89 52.36, 52.5 61 M71.5 45 C66.2 49.15, 62.47 52.2, 52.5 61 M52.5 61 C41.95 68.45, 40.87 70.12, 31.5 61 M52.5 61 C43.76 68.85, 40.43 70.71, 31.5 61 M31.5 61 C28.33 57.74, 22.67 53.13, 10.5 45 M31.5 61 C24.51 55.11, 16.54 50.17, 10.5 45 M10.5 45 C-1.05 35.05, 1.07 36.85, 10.5 27 M10.5 45 C-0.07 37.95, -0.72 36.07, 10.5 27 M10.5 27 C20.23 19.17, 26.13 12.29, 31.5 9 M10.5 27 C18.58 20.72, 25.99 13.42, 31.5 9 M31.5 9 C42.7 0.51, 40.5 0.26, 52.5 9 M31.5 9 C42.41 2.29, 39.7 -0.87, 52.5 9" stroke="#2f9e44" stroke-width="2" fill="none"></path></g><g transform="translate(256.76000022888184 467.5) rotate(0 14.239999771118164 12.5)"><text x="14.239999771118164" y="0" font-family="Virgil, Segoe UI Emoji" font-size="20px" fill="#2f9e44" text-anchor="middle" style="white-space: pre;" direction="ltr" dominant-baseline="text-before-edge">22</text></g><g stroke-linecap="round" transform="translate(687 310) rotate(0 41 35)"><path d="M52.5 9 C55.84 13.85, 62.63 15.79, 71.5 27 M52.5 9 C58.76 15.03, 64.01 18.44, 71.5 27 M71.5 27 C83.89 37.24, 81.58 35.6, 71.5 45 M71.5 27 C80.67 33.86, 79.9 34.98, 71.5 45 M71.5 45 C62.48 50.25, 56.57 56.11, 52.5 61 M71.5 45 C67.45 49.15, 63.15 51.99, 52.5 61 M52.5 61 C42.68 71.31, 43.2 69.74, 31.5 61 M52.5 61 C40.15 68.52, 42.25 68.23, 31.5 61 M31.5 61 C22.52 54.73, 16.83 49.73, 10.5 45 M31.5 61 C23.44 55.03, 15.14 47.64, 10.5 45 M10.5 45 C-1.14 34.22, -1.44 34.16, 10.5 27 M10.5 45 C-0.85 34.74, -1.6 37.73, 10.5 27 M10.5 27 C15.59 23.58, 19.71 19.05, 31.5 9 M10.5 27 C15.9 22.89, 19.02 18.63, 31.5 9 M31.5 9 C41.55 -0.99, 42.76 1.6, 52.5 9 M31.5 9 C42.72 -2.16, 42.72 -0.87, 52.5 9" stroke="#2f9e44" stroke-width="2" fill="none"></path></g><g transform="translate(717.6399993896484 332.5) rotate(0 10.360000610351562 12.5)"><text x="10.360000610351562" y="0" font-family="Virgil, Segoe UI Emoji" font-size="20px" fill="#2f9e44" text-anchor="middle" style="white-space: pre;" direction="ltr" dominant-baseline="text-before-edge">18</text></g><g stroke-linecap="round" transform="translate(536 319) rotate(0 41 35)"><path d="M52.5 9 C60.34 16.57, 66.16 19.4, 71.5 27 M52.5 9 C59.3 15.36, 64.18 20.25, 71.5 27 M71.5 27 C81.08 34.47, 80.02 37.53, 71.5 45 M71.5 27 C83.76 35.87, 84.01 38.07, 71.5 45 M71.5 45 C65.84 47.24, 61.82 54.91, 52.5 61 M71.5 45 C66.07 49.73, 58.63 54.78, 52.5 61 M52.5 61 C40.2 69.34, 43.19 71.51, 31.5 61 M52.5 61 C41.79 71.71, 43.62 69.32, 31.5 61 M31.5 61 C25.28 56, 17.7 51.68, 10.5 45 M31.5 61 C25.24 56.42, 18.33 50.93, 10.5 45 M10.5 45 C-0.89 34.93, 0.73 36.86, 10.5 27 M10.5 45 C0.05 34.26, 0.42 35.98, 10.5 27 M10.5 27 C17.43 22.86, 23.82 15.31, 31.5 9 M10.5 27 C15.35 22.49, 21.77 16.25, 31.5 9 M31.5 9 C41.96 0.62, 40.22 0.33, 52.5 9 M31.5 9 C39.85 1.22, 44.08 1.39, 52.5 9" stroke="#2f9e44" stroke-width="2" fill="none"></path></g><g transform="translate(572.8899998664856 341.5) rotate(0 4.110000133514404 12.5)"><text x="4.110000133514404" y="0" font-family="Virgil, Segoe UI Emoji" font-size="20px" fill="#2f9e44" text-anchor="middle" style="white-space: pre;" direction="ltr" dominant-baseline="text-before-edge">-</text></g><g stroke-linecap="round" transform="translate(379 308) rotate(0 41 35)"><path d="M52.5 9 C58.31 14.38, 62.96 17.72, 71.5 27 M52.5 9 C59.35 14.67, 65.76 20.81, 71.5 27 M71.5 27 C82.65 34.63, 82.56 37.56, 71.5 45 M71.5 27 C80.19 37.67, 82.71 37.75, 71.5 45 M71.5 45 C66.54 48.36, 63.24 52.95, 52.5 61 M71.5 45 C63.74 50.4, 57.24 56.79, 52.5 61 M52.5 61 C41.01 68.94, 42.39 69.48, 31.5 61 M52.5 61 C43.37 69.14, 43.38 68.3, 31.5 61 M31.5 61 C24.35 55.5, 17.02 51.9, 10.5 45 M31.5 61 C22.98 56.42, 17.02 49.03, 10.5 45 M10.5 45 C-1.85 35.14, -1.95 34.12, 10.5 27 M10.5 45 C1.6 33.92, -0.48 37.71, 10.5 27 M10.5 27 C18.99 19.65, 25.97 13.14, 31.5 9 M10.5 27 C16.35 20.89, 24.17 15.27, 31.5 9 M31.5 9 C41.16 0.31, 43.06 0.83, 52.5 9 M31.5 9 C40.91 -1.33, 42.37 1.33, 52.5 9" stroke="#2f9e44" stroke-width="2" fill="none"></path></g><g transform="translate(413.59999990463257 330.5) rotate(0 6.400000095367432 12.5)"><text x="6.400000095367432" y="0" font-family="Virgil, Segoe UI Emoji" font-size="20px" fill="#2f9e44" text-anchor="middle" style="white-space: pre;" direction="ltr" dominant-baseline="text-before-edge">4</text></g><g stroke-linecap="round" transform="translate(228 313) rotate(0 41 35)"><path d="M52.5 9 C58.03 12.96, 64.58 21.62, 71.5 27 M52.5 9 C59.6 15.99, 67.98 23.09, 71.5 27 M71.5 27 C80.27 35.91, 83.27 37.55, 71.5 45 M71.5 27 C82.11 34.09, 80.32 38.23, 71.5 45 M71.5 45 C67.39 48.04, 58.58 54.37, 52.5 61 M71.5 45 C64.95 50.79, 57.59 55.12, 52.5 61 M52.5 61 C42.16 71.38, 41.16 71.95, 31.5 61 M52.5 61 C40.77 71.25, 43.65 68.57, 31.5 61 M31.5 61 C27.46 57, 20.67 53.87, 10.5 45 M31.5 61 C25.23 55.59, 18.61 49.79, 10.5 45 M10.5 45 C1.65 36.71, 1.18 36.42, 10.5 27 M10.5 45 C1.43 37.68, 0.18 37.05, 10.5 27 M10.5 27 C15.28 22.77, 21.54 16.67, 31.5 9 M10.5 27 C16.69 21.02, 22.43 15.33, 31.5 9 M31.5 9 C41.98 -1.56, 43.78 1.03, 52.5 9 M31.5 9 C42.85 -2.3, 41.66 -1.89, 52.5 9" stroke="#2f9e44" stroke-width="2" fill="none"></path></g><g transform="translate(262.75 335.5) rotate(0 6.25 12.5)"><text x="6.25" y="0" font-family="Virgil, Segoe UI Emoji" font-size="20px" fill="#2f9e44" text-anchor="middle" style="white-space: pre;" direction="ltr" dominant-baseline="text-before-edge">+</text></g><g stroke-linecap="round" transform="translate(231 174) rotate(0 41 35)"><path d="M52.5 9 C58.68 17.8, 67.34 21.2, 71.5 27 M52.5 9 C56.76 12.31, 60.19 16.71, 71.5 27 M71.5 27 C80.74 37.78, 82.51 34.85, 71.5 45 M71.5 27 C80.65 34.76, 83.04 37.51, 71.5 45 M71.5 45 C65.18 47.7, 61.88 55.87, 52.5 61 M71.5 45 C64.76 51.74, 56.66 56.58, 52.5 61 M52.5 61 C42.11 68.92, 41.35 69.07, 31.5 61 M52.5 61 C42.27 67.82, 42.47 69.9, 31.5 61 M31.5 61 C24.61 56.48, 14.75 48.67, 10.5 45 M31.5 61 C25.58 55.98, 17.58 51.6, 10.5 45 M10.5 45 C-1.56 36.58, -1.26 36.58, 10.5 27 M10.5 45 C0.6 34.79, 0.74 36.44, 10.5 27 M10.5 27 C17.76 20.04, 24.34 15.72, 31.5 9 M10.5 27 C19.43 19.89, 26.18 13.22, 31.5 9 M31.5 9 C43.22 1.17, 40.85 1.92, 52.5 9 M31.5 9 C41.35 0.22, 44.19 -0.36, 52.5 9" stroke="#2f9e44" stroke-width="2" fill="none"></path></g><g transform="translate(265.59999990463257 196.5) rotate(0 6.400000095367432 12.5)"><text x="6.400000095367432" y="0" font-family="Virgil, Segoe UI Emoji" font-size="20px" fill="#2f9e44" text-anchor="middle" style="white-space: pre;" direction="ltr" dominant-baseline="text-before-edge">4</text></g><g stroke-linecap="round" transform="translate(376 173) rotate(0 41 35)"><path d="M52.5 9 C58.97 12.82, 65.09 18.49, 71.5 27 M52.5 9 C58.81 14.03, 63.51 19.49, 71.5 27 M71.5 27 C83.71 36.02, 81.31 35.91, 71.5 45 M71.5 27 C81.61 36.75, 83.59 38.11, 71.5 45 M71.5 45 C67.56 50.86, 58.77 53.12, 52.5 61 M71.5 45 C67.37 47.77, 62.62 53.1, 52.5 61 M52.5 61 C41.64 68.92, 41.97 71.52, 31.5 61 M52.5 61 C40.71 69.25, 40.23 70.61, 31.5 61 M31.5 61 C25.25 58.22, 21.38 52.56, 10.5 45 M31.5 61 C24.25 55.02, 16.17 50.33, 10.5 45 M10.5 45 C1.24 37.54, -1.77 37.71, 10.5 27 M10.5 45 C-2.27 36.47, 1.17 36.56, 10.5 27 M10.5 27 C18.52 22.23, 22.35 18.27, 31.5 9 M10.5 27 C18.4 19.98, 26.65 12.82, 31.5 9 M31.5 9 C40.36 -0.57, 41.15 0.56, 52.5 9 M31.5 9 C42.37 -1.69, 43.6 -1.03, 52.5 9" stroke="#2f9e44" stroke-width="2" fill="none"></path></g><g transform="translate(411.8400001525879 195.5) rotate(0 5.159999847412109 12.5)"><text x="5.159999847412109" y="0" font-family="Virgil, Segoe UI Emoji" font-size="20px" fill="#2f9e44" text-anchor="middle" style="white-space: pre;" direction="ltr" dominant-baseline="text-before-edge">*</text></g><g stroke-linecap="round" transform="translate(535 177) rotate(0 41 35)"><path d="M52.5 9 C57.47 12.94, 64.98 19.41, 71.5 27 M52.5 9 C58.24 14.27, 62.29 19.93, 71.5 27 M71.5 27 C83.23 36.75, 83.04 37.68, 71.5 45 M71.5 27 C84.12 37.95, 80.98 36.54, 71.5 45 M71.5 45 C66.65 49.98, 61.33 53.7, 52.5 61 M71.5 45 C66.77 48.9, 60.87 53.89, 52.5 61 M52.5 61 C42.89 68.29, 41.97 70.14, 31.5 61 M52.5 61 C40.83 70.74, 43.44 71.89, 31.5 61 M31.5 61 C26.13 55.87, 18.11 51.93, 10.5 45 M31.5 61 C26.86 56.77, 22.63 55.34, 10.5 45 M10.5 45 C-0.78 37.89, -1.64 34.08, 10.5 27 M10.5 45 C1.04 35.19, 0.97 35.7, 10.5 27 M10.5 27 C19.39 21.25, 27.71 11.88, 31.5 9 M10.5 27 C14.09 23.96, 18.53 20, 31.5 9 M31.5 9 C40.52 -1.55, 43.12 -0.43, 52.5 9 M31.5 9 C42.07 1.11, 42.94 1.59, 52.5 9" stroke="#2f9e44" stroke-width="2" fill="none"></path></g><g transform="translate(570.579999923706 199.5) rotate(0 5.420000076293945 12.5)"><text x="5.420000076293945" y="0" font-family="Virgil, Segoe UI Emoji" font-size="20px" fill="#2f9e44" text-anchor="middle" style="white-space: pre;" direction="ltr" dominant-baseline="text-before-edge">11</text></g><g stroke-linecap="round" transform="translate(689 175) rotate(0 41 35)"><path d="M52.5 9 C56.47 15.24, 63.68 19.25, 71.5 27 M52.5 9 C55.99 13.51, 59.49 15.33, 71.5 27 M71.5 27 C82.91 35.29, 82.85 35.74, 71.5 45 M71.5 27 C83.58 36.56, 82.24 37.37, 71.5 45 M71.5 45 C63.16 51.52, 58.12 54.7, 52.5 61 M71.5 45 C63.86 50.03, 58.34 56.34, 52.5 61 M52.5 61 C42.06 70.97, 42.82 71.38, 31.5 61 M52.5 61 C40.3 71.15, 43.44 69.01, 31.5 61 M31.5 61 C25.82 57.13, 20.51 51.6, 10.5 45 M31.5 61 C25.08 56.16, 19.34 52.92, 10.5 45 M10.5 45 C1.62 36.82, 1.14 37.74, 10.5 27 M10.5 45 C2.28 36.06, 1.63 37.1, 10.5 27 M10.5 27 C18.04 20.43, 27.84 13.97, 31.5 9 M10.5 27 C17.36 22.48, 22.41 15.62, 31.5 9 M31.5 9 C42.95 -0.55, 40.25 0.07, 52.5 9 M31.5 9 C39.99 1.92, 42.21 -0.6, 52.5 9" stroke="#2f9e44" stroke-width="2" fill="none"></path></g><g transform="translate(724.8400001525879 197.5) rotate(0 5.159999847412109 12.5)"><text x="5.159999847412109" y="0" font-family="Virgil, Segoe UI Emoji" font-size="20px" fill="#2f9e44" text-anchor="middle" style="white-space: pre;" direction="ltr" dominant-baseline="text-before-edge">*</text></g><g stroke-linecap="round" transform="translate(233 53) rotate(0 41 35)"><path d="M52.5 9 C55.62 11.78, 63.84 17.61, 71.5 27 M52.5 9 C55.81 13.75, 60.61 16.36, 71.5 27 M71.5 27 C82.38 35.59, 83.3 34.78, 71.5 45 M71.5 27 C80.37 34.94, 83.62 35.48, 71.5 45 M71.5 45 C67.75 46.45, 64.63 52.63, 52.5 61 M71.5 45 C66.21 48.96, 60.01 53.79, 52.5 61 M52.5 61 C42.28 69.5, 42.57 70.17, 31.5 61 M52.5 61 C41 69.23, 42.5 71.41, 31.5 61 M31.5 61 C25.81 56.47, 20.21 53.12, 10.5 45 M31.5 61 C25.39 56.01, 20.01 52.02, 10.5 45 M10.5 45 C-0.48 34.1, 0.21 34.27, 10.5 27 M10.5 45 C0.29 35.18, 1.87 35.31, 10.5 27 M10.5 27 C16.11 20.54, 23.84 13.48, 31.5 9 M10.5 27 C16.42 22.57, 22.03 16.9, 31.5 9 M31.5 9 C43.34 1.34, 42.77 0.45, 52.5 9 M31.5 9 C44.17 -1.51, 42.39 -1.05, 52.5 9" stroke="#2f9e44" stroke-width="2" fill="none"></path></g><g transform="translate(268.8400001525879 75.5) rotate(0 5.159999847412109 12.5)"><text x="5.159999847412109" y="0" font-family="Virgil, Segoe UI Emoji" font-size="20px" fill="#2f9e44" text-anchor="middle" style="white-space: pre;" direction="ltr" dominant-baseline="text-before-edge">*</text></g><g stroke-linecap="round" transform="translate(378 52) rotate(0 41 35)"><path d="M52.5 9 C61.53 15.85, 65.13 24.48, 71.5 27 M52.5 9 C56.48 12.4, 60.71 16.37, 71.5 27 M71.5 27 C83.3 34.78, 80.58 35.08, 71.5 45 M71.5 27 C83.62 35.48, 79.82 37.78, 71.5 45 M71.5 45 C66.78 50.56, 60.38 52.36, 52.5 61 M71.5 45 C64.87 49.63, 58.52 55.7, 52.5 61 M52.5 61 C42.57 70.17, 41.13 69.33, 31.5 61 M52.5 61 C42.5 71.41, 40.48 68.65, 31.5 61 M31.5 61 C24.32 56.26, 19.93 50.7, 10.5 45 M31.5 61 C25.73 56.37, 18.89 50.51, 10.5 45 M10.5 45 C0.21 34.27, 0.25 35.29, 10.5 27 M10.5 45 C1.87 35.31, 0.62 38.3, 10.5 27 M10.5 27 C15.82 20.57, 20.78 19.52, 31.5 9 M10.5 27 C15.76 22.14, 20.67 19.41, 31.5 9 M31.5 9 C42.77 0.45, 43.89 -1.31, 52.5 9 M31.5 9 C42.39 -1.05, 42.66 0.33, 52.5 9" stroke="#2f9e44" stroke-width="2" fill="none"></path></g><g transform="translate(411.34999990463257 74.5) rotate(0 7.650000095367432 12.5)"><text x="7.650000095367432" y="0" font-family="Virgil, Segoe UI Emoji" font-size="20px" fill="#2f9e44" text-anchor="middle" style="white-space: pre;" direction="ltr" dominant-baseline="text-before-edge">8</text></g><g stroke-linecap="round" transform="translate(537 56) rotate(0 41 35)"><path d="M52.5 9 C55.07 14.53, 59.42 15.46, 71.5 27 M52.5 9 C59.97 15.75, 67.7 22.23, 71.5 27 M71.5 27 C80.58 35.08, 83.41 35.55, 71.5 45 M71.5 27 C79.82 37.78, 81.78 36.03, 71.5 45 M71.5 45 C67.5 46.68, 64.55 52.75, 52.5 61 M71.5 45 C67.56 48.03, 63.64 51.79, 52.5 61 M52.5 61 C41.13 69.33, 42.44 71.23, 31.5 61 M52.5 61 C40.48 68.65, 41.32 68.99, 31.5 61 M31.5 61 C25.81 55.17, 20.46 52.07, 10.5 45 M31.5 61 C25.74 55.93, 20.62 51.85, 10.5 45 M10.5 45 C0.25 35.29, 1.62 35.4, 10.5 27 M10.5 45 C0.62 38.3, -0.94 34.76, 10.5 27 M10.5 27 C15.43 24.16, 20.31 18.59, 31.5 9 M10.5 27 C17.77 22.07, 24.19 15.88, 31.5 9 M31.5 9 C43.89 -1.31, 42.34 -0.91, 52.5 9 M31.5 9 C42.66 0.33, 43.79 2.06, 52.5 9" stroke="#2f9e44" stroke-width="2" fill="none"></path></g><g transform="translate(573.8899998664856 78.5) rotate(0 4.110000133514404 12.5)"><text x="4.110000133514404" y="0" font-family="Virgil, Segoe UI Emoji" font-size="20px" fill="#2f9e44" text-anchor="middle" style="white-space: pre;" direction="ltr" dominant-baseline="text-before-edge">-</text></g><g stroke-linecap="round" transform="translate(691 54) rotate(0 41 35)"><path d="M52.5 9 C56.13 12.49, 64.98 19.35, 71.5 27 M52.5 9 C58.29 13.27, 62.03 18.25, 71.5 27 M71.5 27 C83.41 35.55, 80.1 37.55, 71.5 45 M71.5 27 C81.78 36.03, 79.91 36.92, 71.5 45 M71.5 45 C65.71 51.44, 56.32 55.96, 52.5 61 M71.5 45 C67.57 48.61, 62.6 51.76, 52.5 61 M52.5 61 C42.44 71.23, 40.68 68.83, 31.5 61 M52.5 61 C41.32 68.99, 41.16 68.2, 31.5 61 M31.5 61 C25.48 55.84, 18.83 52.57, 10.5 45 M31.5 61 C24.95 54.84, 18.29 50.25, 10.5 45 M10.5 45 C1.62 35.4, 0.54 38, 10.5 27 M10.5 45 C-0.94 34.76, -0.75 35.75, 10.5 27 M10.5 27 C13.5 24.08, 19.69 20.43, 31.5 9 M10.5 27 C15.58 22.95, 20.96 17.94, 31.5 9 M31.5 9 C42.34 -0.91, 42.57 0.28, 52.5 9 M31.5 9 C43.79 2.06, 42.53 -0.76, 52.5 9" stroke="#2f9e44" stroke-width="2" fill="none"></path></g><g transform="translate(729.289999961853 76.5) rotate(0 2.7100000381469727 12.5)"><text x="2.7100000381469727" y="0" font-family="Virgil, Segoe UI Emoji" font-size="20px" fill="#2f9e44" text-anchor="middle" style="white-space: pre;" direction="ltr" dominant-baseline="text-before-edge">1</text></g><g transform="translate(893.5599975585938 10) rotate(0 25.80000114440918 25)"><text x="51.60000228881836" y="0" font-family="Virgil, Segoe UI Emoji" font-size="20px" fill="#2f9e44" text-anchor="end" style="white-space: pre;" direction="ltr" dominant-baseline="text-before-edge">Vault</text><text x="51.60000228881836" y="25" font-family="Virgil, Segoe UI Emoji" font-size="20px" fill="#2f9e44" text-anchor="end" style="white-space: pre;" direction="ltr" dominant-baseline="text-before-edge">30</text></g><g stroke-linecap="round"><g transform="translate(272.0078142994789 310.5454246007714) rotate(0 -1.703069391690292 -33.02934385136405)"><path d="M-0.99 0.72 C-1.64 -10.45, -3.64 -55.29, -4.09 -66.29 M0.69 0.04 C0.45 -10.99, -0.86 -53.67, -1.73 -64.87" stroke="#1e1e1e" stroke-width="2" fill="none"></path></g><g transform="translate(272.0078142994789 310.5454246007714) rotate(0 -1.703069391690292 -33.02934385136405)"><path d="M-10.64 -22.35 C-6.58 -16.86, -5.42 -9.58, -0.99 0.72 M-10.64 -22.35 C-6.45 -12.88, -4.02 -5.87, -0.99 0.72" stroke="#1e1e1e" stroke-width="2" fill="none"></path></g><g transform="translate(272.0078142994789 310.5454246007714) rotate(0 -1.703069391690292 -33.02934385136405)"><path d="M6.44 -23.15 C5.66 -17.58, 1.98 -10.07, -0.99 0.72 M6.44 -23.15 C4.35 -13.52, 0.5 -6.22, -0.99 0.72" stroke="#1e1e1e" stroke-width="2" fill="none"></path></g><g transform="translate(272.0078142994789 310.5454246007714) rotate(0 -1.703069391690292 -33.02934385136405)"><path d="M8.01 -41.84 C6.31 -49.59, 1.97 -55.39, -1.73 -64.87 M8.01 -41.84 C5.1 -49.46, 0.4 -59.4, -1.73 -64.87" stroke="#1e1e1e" stroke-width="2" fill="none"></path></g><g transform="translate(272.0078142994789 310.5454246007714) rotate(0 -1.703069391690292 -33.02934385136405)"><path d="M-9.07 -40.97 C-5.93 -48.83, -5.42 -54.87, -1.73 -64.87 M-9.07 -40.97 C-5.71 -48.78, -4.12 -59.03, -1.73 -64.87" stroke="#1e1e1e" stroke-width="2" fill="none"></path></g></g><mask></mask><g stroke-linecap="round"><g transform="translate(274.0078142994789 171.5454246007714) rotate(0 1.296930608309708 -24.529343851364047)"><path d="M0.15 -0.52 C0.54 -8.75, 1.97 -41.24, 2.36 -49.29 M-0.44 0.41 C-0.15 -7.76, 1.39 -40.35, 1.8 -48.7" stroke="#1e1e1e" stroke-width="2" fill="none"></path></g><g transform="translate(274.0078142994789 171.5454246007714) rotate(0 1.296930608309708 -24.529343851364047)"><path d="M-7.2 -23.95 C-5.87 -17.21, -3.09 -9.85, 0.15 -0.52 M-7.2 -23.95 C-4.67 -15.31, -2.5 -7.93, 0.15 -0.52" stroke="#1e1e1e" stroke-width="2" fill="none"></path></g><g transform="translate(274.0078142994789 171.5454246007714) rotate(0 1.296930608309708 -24.529343851364047)"><path d="M9.58 -23.2 C5.77 -16.67, 3.41 -9.53, 0.15 -0.52 M9.58 -23.2 C6.25 -14.85, 2.56 -7.73, 0.15 -0.52" stroke="#1e1e1e" stroke-width="2" fill="none"></path></g><g transform="translate(274.0078142994789 171.5454246007714) rotate(0 1.296930608309708 -24.529343851364047)"><path d="M9.09 -25.25 C5.9 -32.85, 4.19 -39.86, 1.8 -48.7 M9.09 -25.25 C6.58 -33.02, 3.64 -42.03, 1.8 -48.7" stroke="#1e1e1e" stroke-width="2" fill="none"></path></g><g transform="translate(274.0078142994789 171.5454246007714) rotate(0 1.296930608309708 -24.529343851364047)"><path d="M-7.69 -26.05 C-5.74 -33.44, -2.31 -40.19, 1.8 -48.7 M-7.69 -26.05 C-4.33 -33.52, -1.41 -42.24, 1.8 -48.7" stroke="#1e1e1e" stroke-width="2" fill="none"></path></g></g><mask></mask><g stroke-linecap="round"><g transform="translate(417.040169835102 176.87759191422427) rotate(0 1.296930608309708 -24.529343851364047)"><path d="M-0.03 -0.45 C0.54 -8.69, 2.38 -41.3, 2.86 -49.39 M-0.71 0.5 C-0.15 -7.67, 2 -40.71, 2.56 -48.86" stroke="#1e1e1e" stroke-width="2" fill="none"></path></g><g transform="translate(417.040169835102 176.87759191422427) rotate(0 1.296930608309708 -24.529343851364047)"><path d="M-7.05 -23.99 C-6.44 -18.73, -4.79 -13.93, -0.03 -0.45 M-7.05 -23.99 C-5.31 -17.09, -2.25 -9.33, -0.03 -0.45" stroke="#1e1e1e" stroke-width="2" fill="none"></path></g><g transform="translate(417.040169835102 176.87759191422427) rotate(0 1.296930608309708 -24.529343851364047)"><path d="M9.72 -23 C6.92 -17.94, 5.16 -13.34, -0.03 -0.45 M9.72 -23 C6.31 -16.34, 4.24 -8.87, -0.03 -0.45" stroke="#1e1e1e" stroke-width="2" fill="none"></path></g><g transform="translate(417.040169835102 176.87759191422427) rotate(0 1.296930608309708 -24.529343851364047)"><path d="M9.41 -25.27 C7.19 -29.59, 6.02 -34.38, 2.56 -48.86 M9.41 -25.27 C6.74 -32.77, 5.56 -39.46, 2.56 -48.86" stroke="#1e1e1e" stroke-width="2" fill="none"></path></g><g transform="translate(417.040169835102 176.87759191422427) rotate(0 1.296930608309708 -24.529343851364047)"><path d="M-7.36 -26.39 C-6.17 -30.48, -3.93 -35.04, 2.56 -48.86 M-7.36 -26.39 C-4.88 -33.61, -0.92 -39.96, 2.56 -48.86" stroke="#1e1e1e" stroke-width="2" fill="none"></path></g></g><mask></mask><g stroke-linecap="round"><g transform="translate(574.040169835102 170.87759191422427) rotate(0 1.296930608309708 -24.529343851364047)"><path d="M0.19 0.4 C0.47 -7.74, 1.75 -40.59, 2.12 -48.87 M-0.38 0.13 C0.04 -8.17, 2.72 -41.59, 3.11 -49.74" stroke="#1e1e1e" stroke-width="2" fill="none"></path></g><g transform="translate(574.040169835102 170.87759191422427) rotate(0 1.296930608309708 -24.529343851364047)"><path d="M-7.32 -22.99 C-3.81 -15.15, -1.4 -5.91, 0.19 0.4 M-7.32 -22.99 C-5.55 -17.27, -3.5 -11.05, 0.19 0.4" stroke="#1e1e1e" stroke-width="2" fill="none"></path></g><g transform="translate(574.040169835102 170.87759191422427) rotate(0 1.296930608309708 -24.529343851364047)"><path d="M9.47 -22.34 C6.72 -14.71, 2.88 -5.72, 0.19 0.4 M9.47 -22.34 C6.85 -16.81, 4.53 -10.76, 0.19 0.4" stroke="#1e1e1e" stroke-width="2" fill="none"></path></g><g transform="translate(574.040169835102 170.87759191422427) rotate(0 1.296930608309708 -24.529343851364047)"><path d="M9.97 -26.15 C8.15 -35.79, 5.22 -44.05, 3.11 -49.74 M9.97 -26.15 C8.07 -32.71, 6.37 -38.76, 3.11 -49.74" stroke="#1e1e1e" stroke-width="2" fill="none"></path></g><g transform="translate(574.040169835102 170.87759191422427) rotate(0 1.296930608309708 -24.529343851364047)"><path d="M-6.8 -27.26 C-2.37 -36.51, 0.94 -44.36, 3.11 -49.74 M-6.8 -27.26 C-4.33 -33.51, -1.64 -39.27, 3.11 -49.74" stroke="#1e1e1e" stroke-width="2" fill="none"></path></g></g><mask></mask><g stroke-linecap="round"><g transform="translate(727.040169835102 173.87759191422427) rotate(0 1.296930608309708 -24.529343851364047)"><path d="M-0.41 -0.27 C-0.04 -8.5, 1.94 -41.03, 2.49 -49.22 M0.38 0.78 C0.65 -7.38, 1.62 -40.31, 2 -48.61" stroke="#1e1e1e" stroke-width="2" fill="none"></path></g><g transform="translate(727.040169835102 173.87759191422427) rotate(0 1.296930608309708 -24.529343851364047)"><path d="M-7.46 -23.8 C-5.5 -15.85, -2.87 -7.04, -0.41 -0.27 M-7.46 -23.8 C-5.59 -17.93, -4.6 -12.45, -0.41 -0.27" stroke="#1e1e1e" stroke-width="2" fill="none"></path></g><g transform="translate(727.040169835102 173.87759191422427) rotate(0 1.296930608309708 -24.529343851364047)"><path d="M9.31 -22.83 C5.49 -15.28, 2.33 -6.81, -0.41 -0.27 M9.31 -22.83 C7.25 -17.16, 4.29 -11.91, -0.41 -0.27" stroke="#1e1e1e" stroke-width="2" fill="none"></path></g><g transform="translate(727.040169835102 173.87759191422427) rotate(0 1.296930608309708 -24.529343851364047)"><path d="M9.55 -25.23 C6.43 -33.52, 4.02 -40.89, 2 -48.61 M9.55 -25.23 C8.02 -30.35, 5.58 -35.89, 2 -48.61" stroke="#1e1e1e" stroke-width="2" fill="none"></path></g><g transform="translate(727.040169835102 173.87759191422427) rotate(0 1.296930608309708 -24.529343851364047)"><path d="M-7.24 -25.85 C-4.57 -33.86, -1.18 -41.02, 2 -48.61 M-7.24 -25.85 C-4.83 -30.85, -3.33 -36.24, 2 -48.61" stroke="#1e1e1e" stroke-width="2" fill="none"></path></g></g><mask></mask><g stroke-linecap="round"><g transform="translate(417.481707868355 303.2356595931123) rotate(0 1.3312428203832951 -25.17830382105123)"><path d="M0.86 0.55 C1.47 -8.01, 3.38 -42.83, 3.55 -51.18 M-0.15 -0.21 C0.39 -8.65, 2.32 -41.53, 3.07 -50.07" stroke="#1e1e1e" stroke-width="2" fill="none"></path></g><g transform="translate(417.481707868355 303.2356595931123) rotate(0 1.3312428203832951 -25.17830382105123)"><path d="M-6.37 -23.39 C-3.33 -15, -3.51 -10.86, 0.86 0.55 M-6.37 -23.39 C-3.67 -14.66, -0.96 -6.62, 0.86 0.55" stroke="#1e1e1e" stroke-width="2" fill="none"></path></g><g transform="translate(417.481707868355 303.2356595931123) rotate(0 1.3312428203832951 -25.17830382105123)"><path d="M10.71 -22.43 C8.78 -14.2, 3.64 -10.34, 0.86 0.55 M10.71 -22.43 C7.17 -13.98, 3.63 -6.3, 0.86 0.55" stroke="#1e1e1e" stroke-width="2" fill="none"></path></g><g transform="translate(417.481707868355 303.2356595931123) rotate(0 1.3312428203832951 -25.17830382105123)"><path d="M9.93 -26.03 C8.81 -31.49, 4.54 -41.3, 3.07 -50.07 M9.93 -26.03 C7.68 -34.79, 5.24 -44.3, 3.07 -50.07" stroke="#1e1e1e" stroke-width="2" fill="none"></path></g><g transform="translate(417.481707868355 303.2356595931123) rotate(0 1.3312428203832951 -25.17830382105123)"><path d="M-7.13 -27.25 C-3.28 -32.48, -2.6 -41.93, 3.07 -50.07 M-7.13 -27.25 C-3.14 -35.63, 0.66 -44.7, 3.07 -50.07" stroke="#1e1e1e" stroke-width="2" fill="none"></path></g></g><mask></mask><g stroke-linecap="round"><g transform="translate(574.4911960030722 297.0562068779877) rotate(0 1.296930608309708 -24.529343851364047)"><path d="M0.41 -0.38 C0.71 -8.54, 1.9 -40.62, 2.23 -48.7 M-0.05 0.62 C0.4 -7.71, 2.95 -41.07, 3.27 -49.48" stroke="#1e1e1e" stroke-width="2" fill="none"></path></g><g transform="translate(574.4911960030722 297.0562068779877) rotate(0 1.296930608309708 -24.529343851364047)"><path d="M-7.13 -23.76 C-4.96 -15.77, -0.82 -6.85, 0.41 -0.38 M-7.13 -23.76 C-4.44 -16.2, -2.41 -7.97, 0.41 -0.38" stroke="#1e1e1e" stroke-width="2" fill="none"></path></g><g transform="translate(574.4911960030722 297.0562068779877) rotate(0 1.296930608309708 -24.529343851364047)"><path d="M9.66 -23.13 C5.59 -15.32, 3.5 -6.63, 0.41 -0.38 M9.66 -23.13 C6.66 -15.78, 3.01 -7.77, 0.41 -0.38" stroke="#1e1e1e" stroke-width="2" fill="none"></path></g><g transform="translate(574.4911960030722 297.0562068779877) rotate(0 1.296930608309708 -24.529343851364047)"><path d="M10.28 -25.93 C6.94 -35.32, 5.68 -43.82, 3.27 -49.48 M10.28 -25.93 C8 -34.26, 5.11 -41.93, 3.27 -49.48" stroke="#1e1e1e" stroke-width="2" fill="none"></path></g><g transform="translate(574.4911960030722 297.0562068779877) rotate(0 1.296930608309708 -24.529343851364047)"><path d="M-6.49 -26.94 C-3.61 -36.01, 1.36 -44.14, 3.27 -49.48 M-6.49 -26.94 C-3.09 -34.93, -0.3 -42.25, 3.27 -49.48" stroke="#1e1e1e" stroke-width="2" fill="none"></path></g></g><mask></mask><g stroke-linecap="round"><g transform="translate(727.4911960030722 300.0562068779877) rotate(0 1.296930608309708 -24.529343851364047)"><path d="M-0.37 0.36 C-0.04 -7.72, 1.85 -40.61, 2.36 -48.85 M0.44 0.07 C0.64 -8.14, 1.49 -41.62, 1.81 -49.7" stroke="#1e1e1e" stroke-width="2" fill="none"></path></g><g transform="translate(727.4911960030722 300.0562068779877) rotate(0 1.296930608309708 -24.529343851364047)"><path d="M-7.51 -23.14 C-4.26 -14.75, -1.86 -5.37, -0.37 0.36 M-7.51 -23.14 C-5.74 -16.1, -3.38 -8.92, -0.37 0.36" stroke="#1e1e1e" stroke-width="2" fill="none"></path></g><g transform="translate(727.4911960030722 300.0562068779877) rotate(0 1.296930608309708 -24.529343851364047)"><path d="M9.27 -22.23 C6.24 -14.24, 2.37 -5.2, -0.37 0.36 M9.27 -22.23 C5.99 -15.52, 3.3 -8.62, -0.37 0.36" stroke="#1e1e1e" stroke-width="2" fill="none"></path></g><g transform="translate(727.4911960030722 300.0562068779877) rotate(0 1.296930608309708 -24.529343851364047)"><path d="M9.48 -26.37 C7.35 -35.55, 4.21 -43.69, 1.81 -49.7 M9.48 -26.37 C6.75 -33.46, 4.64 -40.37, 1.81 -49.7" stroke="#1e1e1e" stroke-width="2" fill="none"></path></g><g transform="translate(727.4911960030722 300.0562068779877) rotate(0 1.296930608309708 -24.529343851364047)"><path d="M-7.31 -26.89 C-3.16 -35.82, -0.02 -43.77, 1.81 -49.7 M-7.31 -26.89 C-5 -33.77, -2.05 -40.52, 1.81 -49.7" stroke="#1e1e1e" stroke-width="2" fill="none"></path></g></g><mask></mask><g stroke-linecap="round"><g transform="translate(423.85531311785076 435.05108770004176) rotate(0 1.296930608309708 -24.529343851364047)"><path d="M0.39 -0.5 C0.75 -8.77, 1.7 -41.1, 2.07 -49.23 M-0.07 0.43 C0.45 -7.8, 2.64 -40.42, 3.03 -48.63" stroke="#1e1e1e" stroke-width="2" fill="none"></path></g><g transform="translate(423.85531311785076 435.05108770004176) rotate(0 1.296930608309708 -24.529343851364047)"><path d="M-7.23 -23.85 C-5.89 -18.21, -3.14 -10.6, 0.39 -0.5 M-7.23 -23.85 C-4.85 -17.48, -2.84 -11.69, 0.39 -0.5" stroke="#1e1e1e" stroke-width="2" fill="none"></path></g><g transform="translate(423.85531311785076 435.05108770004176) rotate(0 1.296930608309708 -24.529343851364047)"><path d="M9.56 -23.29 C6.13 -17.74, 4.11 -10.3, 0.39 -0.5 M9.56 -23.29 C7.62 -17.06, 5.32 -11.42, 0.39 -0.5" stroke="#1e1e1e" stroke-width="2" fill="none"></path></g><g transform="translate(423.85531311785076 435.05108770004176) rotate(0 1.296930608309708 -24.529343851364047)"><path d="M10.07 -25.09 C7.07 -32.71, 5.66 -38.43, 3.03 -48.63 M10.07 -25.09 C8.7 -30.78, 6.95 -37.05, 3.03 -48.63" stroke="#1e1e1e" stroke-width="2" fill="none"></path></g><g transform="translate(423.85531311785076 435.05108770004176) rotate(0 1.296930608309708 -24.529343851364047)"><path d="M-6.71 -26.07 C-4.93 -33.48, -1.58 -38.92, 3.03 -48.63 M-6.71 -26.07 C-3.76 -31.5, -1.2 -37.52, 3.03 -48.63" stroke="#1e1e1e" stroke-width="2" fill="none"></path></g></g><mask></mask><g stroke-linecap="round"><g transform="translate(580.8553131178508 429.05108770004176) rotate(0 1.296930608309708 -24.529343851364047)"><path d="M-0.53 -0.18 C-0.16 -8.31, 2.09 -41.14, 2.6 -49.29 M0.2 -0.74 C0.46 -8.76, 1.84 -40.76, 2.17 -48.72" stroke="#1e1e1e" stroke-width="2" fill="none"></path></g><g transform="translate(580.8553131178508 429.05108770004176) rotate(0 1.296930608309708 -24.529343851364047)"><path d="M-7.46 -23.74 C-5.32 -14.96, -2.86 -6.35, -0.53 -0.18 M-7.46 -23.74 C-4.83 -16.68, -2.87 -9.87, -0.53 -0.18" stroke="#1e1e1e" stroke-width="2" fill="none"></path></g><g transform="translate(580.8553131178508 429.05108770004176) rotate(0 1.296930608309708 -24.529343851364047)"><path d="M9.31 -22.68 C5.24 -14.38, 1.48 -6.16, -0.53 -0.18 M9.31 -22.68 C7 -15.88, 4.02 -9.37, -0.53 -0.18" stroke="#1e1e1e" stroke-width="2" fill="none"></path></g><g transform="translate(580.8553131178508 429.05108770004176) rotate(0 1.296930608309708 -24.529343851364047)"><path d="M9.6 -25.3 C6.63 -34.01, 3.76 -42.82, 2.17 -48.72 M9.6 -25.3 C7.79 -32.02, 5.53 -39.02, 2.17 -48.72" stroke="#1e1e1e" stroke-width="2" fill="none"></path></g><g transform="translate(580.8553131178508 429.05108770004176) rotate(0 1.296930608309708 -24.529343851364047)"><path d="M-7.19 -26.01 C-3.94 -34.38, -0.58 -42.92, 2.17 -48.72 M-7.19 -26.01 C-4.05 -32.58, -1.37 -39.38, 2.17 -48.72" stroke="#1e1e1e" stroke-width="2" fill="none"></path></g></g><mask></mask><g stroke-linecap="round"><g transform="translate(733.8553131178508 432.05108770004176) rotate(0 1.296930608309708 -24.529343851364047)"><path d="M0 -0.24 C0.51 -8.39, 2.02 -41.02, 2.53 -49.09 M-0.66 0.83 C-0.18 -7.21, 1.46 -40.02, 2.06 -48.41" stroke="#1e1e1e" stroke-width="2" fill="none"></path></g><g transform="translate(733.8553131178508 432.05108770004176) rotate(0 1.296930608309708 -24.529343851364047)"><path d="M-7.21 -23.72 C-6.21 -19.05, -4.36 -13.27, 0 -0.24 M-7.21 -23.72 C-4 -14.93, -1.96 -6.11, 0 -0.24" stroke="#1e1e1e" stroke-width="2" fill="none"></path></g><g transform="translate(733.8553131178508 432.05108770004176) rotate(0 1.296930608309708 -24.529343851364047)"><path d="M9.57 -22.86 C7.15 -18.37, 5.57 -12.77, 0 -0.24 M9.57 -22.86 C6.52 -14.37, 2.29 -5.87, 0 -0.24" stroke="#1e1e1e" stroke-width="2" fill="none"></path></g><g transform="translate(733.8553131178508 432.05108770004176) rotate(0 1.296930608309708 -24.529343851364047)"><path d="M9.07 -24.87 C7.25 -29.79, 6.19 -33.6, 2.06 -48.41 M9.07 -24.87 C6.75 -33.61, 3.48 -42.34, 2.06 -48.41" stroke="#1e1e1e" stroke-width="2" fill="none"></path></g><g transform="translate(733.8553131178508 432.05108770004176) rotate(0 1.296930608309708 -24.529343851364047)"><path d="M-7.7 -25.87 C-6.1 -30.58, -3.74 -34.19, 2.06 -48.41 M-7.7 -25.87 C-3.76 -34.26, -0.77 -42.61, 2.06 -48.41" stroke="#1e1e1e" stroke-width="2" fill="none"></path></g></g><mask></mask><g stroke-linecap="round"><g transform="translate(380.9250505941591 85.8817123606189) rotate(0 -34.70306939169029 0.9706561486359533)"><path d="M0.72 -0.7 C-10.79 -0.43, -56.82 0.74, -68.4 1.14 M-0.37 1.55 C-12 1.99, -57.35 2.03, -68.81 2.26" stroke="#1e1e1e" stroke-width="2" fill="none"></path></g><g transform="translate(380.9250505941591 85.8817123606189) rotate(0 -34.70306939169029 0.9706561486359533)"><path d="M-22.55 8.45 C-15.44 6.76, -7.38 2.92, 0.72 -0.7 M-22.55 8.45 C-15.42 5.19, -10.13 3.07, 0.72 -0.7" stroke="#1e1e1e" stroke-width="2" fill="none"></path></g><g transform="translate(380.9250505941591 85.8817123606189) rotate(0 -34.70306939169029 0.9706561486359533)"><path d="M-22.99 -8.64 C-15.79 -4.29, -7.57 -2.07, 0.72 -0.7 M-22.99 -8.64 C-15.59 -7.08, -10.18 -4.38, 0.72 -0.7" stroke="#1e1e1e" stroke-width="2" fill="none"></path></g><g transform="translate(380.9250505941591 85.8817123606189) rotate(0 -34.70306939169029 0.9706561486359533)"><path d="M-45.41 -6.52 C-54.88 -1.59, -63.34 0.92, -68.81 2.26 M-45.41 -6.52 C-51.29 -5.12, -59.17 -2.18, -68.81 2.26" stroke="#1e1e1e" stroke-width="2" fill="none"></path></g><g transform="translate(380.9250505941591 85.8817123606189) rotate(0 -34.70306939169029 0.9706561486359533)"><path d="M-45.24 10.58 C-54.71 9.46, -63.23 5.92, -68.81 2.26 M-45.24 10.58 C-51.31 7.16, -59.24 5.27, -68.81 2.26" stroke="#1e1e1e" stroke-width="2" fill="none"></path></g></g><mask></mask><g stroke-linecap="round"><g transform="translate(379.04881464568166 202.65624340775128) rotate(0 -34.70306939169029 0.9706561486359533)"><path d="M-0.76 0.27 C-12.44 0.42, -58.07 1.5, -69.65 1.76 M1.04 -0.63 C-10.86 -0.38, -59.26 2.58, -70.73 3.21" stroke="#1e1e1e" stroke-width="2" fill="none"></path></g><g transform="translate(379.04881464568166 202.65624340775128) rotate(0 -34.70306939169029 0.9706561486359533)"><path d="M-24.07 9.32 C-15.83 6.01, -8.73 2.02, -0.76 0.27 M-24.07 9.32 C-16.34 7.15, -9.88 4.37, -0.76 0.27" stroke="#1e1e1e" stroke-width="2" fill="none"></path></g><g transform="translate(379.04881464568166 202.65624340775128) rotate(0 -34.70306939169029 0.9706561486359533)"><path d="M-24.43 -7.78 C-15.94 -5.32, -8.72 -3.56, -0.76 0.27 M-24.43 -7.78 C-16.46 -4.96, -9.9 -2.76, -0.76 0.27" stroke="#1e1e1e" stroke-width="2" fill="none"></path></g><g transform="translate(379.04881464568166 202.65624340775128) rotate(0 -34.70306939169029 0.9706561486359533)"><path d="M-47.77 -6.68 C-54.97 -3.9, -63.46 -1.52, -70.73 3.21 M-47.77 -6.68 C-53.38 -3.44, -60.41 -0.7, -70.73 3.21" stroke="#1e1e1e" stroke-width="2" fill="none"></path></g><g transform="translate(379.04881464568166 202.65624340775128) rotate(0 -34.70306939169029 0.9706561486359533)"><path d="M-46.78 10.39 C-54.45 7.41, -63.26 4.05, -70.73 3.21 M-46.78 10.39 C-52.82 8.65, -60.14 6.41, -70.73 3.21" stroke="#1e1e1e" stroke-width="2" fill="none"></path></g></g><mask></mask><g stroke-linecap="round"><g transform="translate(377.04881464568166 347.6562434077513) rotate(0 -34.70306939169029 0.9706561486359533)"><path d="M-1.12 -0.59 C-12.69 -0.23, -57.37 0.34, -68.79 0.96 M0.49 1.71 C-11.24 2.3, -57.58 2.03, -69.41 1.98" stroke="#1e1e1e" stroke-width="2" fill="none"></path></g><g transform="translate(377.04881464568166 347.6562434077513) rotate(0 -34.70306939169029 0.9706561486359533)"><path d="M-24.43 8.43 C-17.09 6.49, -9.51 1.92, -1.12 -0.59 M-24.43 8.43 C-15.12 5.88, -5.21 1.63, -1.12 -0.59" stroke="#1e1e1e" stroke-width="2" fill="none"></path></g><g transform="translate(377.04881464568166 347.6562434077513) rotate(0 -34.70306939169029 0.9706561486359533)"><path d="M-24.78 -8.67 C-17.49 -4.56, -9.78 -3.1, -1.12 -0.59 M-24.78 -8.67 C-15.29 -4.42, -5.24 -1.88, -1.12 -0.59" stroke="#1e1e1e" stroke-width="2" fill="none"></path></g><g transform="translate(377.04881464568166 347.6562434077513) rotate(0 -34.70306939169029 0.9706561486359533)"><path d="M-45.88 -6.47 C-55.27 -2.68, -64.23 -1.08, -69.41 1.98 M-45.88 -6.47 C-55.14 -2.19, -63.85 0.5, -69.41 1.98" stroke="#1e1e1e" stroke-width="2" fill="none"></path></g><g transform="translate(377.04881464568166 347.6562434077513) rotate(0 -34.70306939169029 0.9706561486359533)"><path d="M-45.96 10.63 C-55.14 8.38, -64.08 3.94, -69.41 1.98 M-45.96 10.63 C-55.23 8.12, -63.9 4.01, -69.41 1.98" stroke="#1e1e1e" stroke-width="2" fill="none"></path></g></g><mask></mask><g stroke-linecap="round"><g transform="translate(376.04881464568166 473.6562434077513) rotate(0 -34.70306939169029 0.9706561486359533)"><path d="M-0.15 0.79 C-11.87 1.45, -58.06 2.86, -69.49 3.14 M-1.69 0.16 C-13.64 0.6, -59.24 1.61, -70.48 1.65" stroke="#1e1e1e" stroke-width="2" fill="none"></path></g><g transform="translate(376.04881464568166 473.6562434077513) rotate(0 -34.70306939169029 0.9706561486359533)"><path d="M-23.32 10.18 C-13.46 6.64, -4.3 4.47, -0.15 0.79 M-23.32 10.18 C-15.11 6.65, -7.12 3.03, -0.15 0.79" stroke="#1e1e1e" stroke-width="2" fill="none"></path></g><g transform="translate(376.04881464568166 473.6562434077513) rotate(0 -34.70306939169029 0.9706561486359533)"><path d="M-23.94 -6.91 C-13.96 -4.2, -4.58 -0.11, -0.15 0.79 M-23.94 -6.91 C-15.35 -4.57, -7.16 -2.32, -0.15 0.79" stroke="#1e1e1e" stroke-width="2" fill="none"></path></g><g transform="translate(376.04881464568166 473.6562434077513) rotate(0 -34.70306939169029 0.9706561486359533)"><path d="M-47.11 -7.25 C-54.41 -4.15, -62.29 0.37, -70.48 1.65 M-47.11 -7.25 C-54.7 -4.56, -62.7 -1.9, -70.48 1.65" stroke="#1e1e1e" stroke-width="2" fill="none"></path></g><g transform="translate(376.04881464568166 473.6562434077513) rotate(0 -34.70306939169029 0.9706561486359533)"><path d="M-46.86 9.85 C-54.13 6.69, -62.1 4.95, -70.48 1.65 M-46.86 9.85 C-54.69 6.67, -62.77 3.46, -70.48 1.65" stroke="#1e1e1e" stroke-width="2" fill="none"></path></g></g><mask></mask><g stroke-linecap="round"><g transform="translate(539.3176439454763 89.32854850221477) rotate(0 -34.70306939169029 0.9706561486359533)"><path d="M-0.5 -0.2 C-12.13 0.21, -57.77 0.92, -69.32 1.34 M1.44 -1.36 C-10.38 -0.69, -58.19 2.31, -70.22 2.57" stroke="#1e1e1e" stroke-width="2" fill="none"></path></g><g transform="translate(539.3176439454763 89.32854850221477) rotate(0 -34.70306939169029 0.9706561486359533)"><path d="M-23.8 8.85 C-16.18 6.03, -8.97 2.21, -0.5 -0.2 M-23.8 8.85 C-16.78 6.91, -7.38 2.62, -0.5 -0.2" stroke="#1e1e1e" stroke-width="2" fill="none"></path></g><g transform="translate(539.3176439454763 89.32854850221477) rotate(0 -34.70306939169029 0.9706561486359533)"><path d="M-24.17 -8.24 C-16.59 -5.29, -9.25 -3.33, -0.5 -0.2 M-24.17 -8.24 C-17.12 -4.52, -7.6 -3.16, -0.5 -0.2" stroke="#1e1e1e" stroke-width="2" fill="none"></path></g><g transform="translate(539.3176439454763 89.32854850221477) rotate(0 -34.70306939169029 0.9706561486359533)"><path d="M-47.14 -7.03 C-55.37 -3.74, -63.82 -1.26, -70.22 2.57 M-47.14 -7.03 C-55.58 -3.22, -61.54 -1.34, -70.22 2.57" stroke="#1e1e1e" stroke-width="2" fill="none"></path></g><g transform="translate(539.3176439454763 89.32854850221477) rotate(0 -34.70306939169029 0.9706561486359533)"><path d="M-46.37 10.06 C-54.7 7.57, -63.41 4.28, -70.22 2.57 M-46.37 10.06 C-54.97 8.2, -61.18 4.42, -70.22 2.57" stroke="#1e1e1e" stroke-width="2" fill="none"></path></g></g><mask></mask><g stroke-linecap="round"><g transform="translate(537.4414079969989 206.10307954934714) rotate(0 -36.446830311800284 1.0194297092611464)"><path d="M0.08 -0.6 C-12.04 -0.16, -60.99 2.16, -73.27 2.41 M-1.33 1.7 C-13.6 1.78, -62.18 0.49, -74.41 0.48" stroke="#1e1e1e" stroke-width="2" fill="none"></path></g><g transform="translate(537.4414079969989 206.10307954934714) rotate(0 -36.446830311800284 1.0194297092611464)"><path d="M-23.02 8.95 C-18.03 5.85, -10.44 2.86, 0.08 -0.6 M-23.02 8.95 C-17.22 6.32, -13.44 4.46, 0.08 -0.6" stroke="#1e1e1e" stroke-width="2" fill="none"></path></g><g transform="translate(537.4414079969989 206.10307954934714) rotate(0 -36.446830311800284 1.0194297092611464)"><path d="M-23.75 -8.13 C-18.6 -6.82, -10.82 -5.39, 0.08 -0.6 M-23.75 -8.13 C-17.92 -7.23, -14 -5.55, 0.08 -0.6" stroke="#1e1e1e" stroke-width="2" fill="none"></path></g><g transform="translate(537.4414079969989 206.10307954934714) rotate(0 -36.446830311800284 1.0194297092611464)"><path d="M-50.79 -7.71 C-57.91 -6.2, -62.4 -4.59, -74.41 0.48 M-50.79 -7.71 C-54.81 -6.27, -60.72 -4.45, -74.41 0.48" stroke="#1e1e1e" stroke-width="2" fill="none"></path></g><g transform="translate(537.4414079969989 206.10307954934714) rotate(0 -36.446830311800284 1.0194297092611464)"><path d="M-51.05 9.39 C-58.07 6.48, -62.49 3.66, -74.41 0.48 M-51.05 9.39 C-54.88 7.28, -60.74 5.55, -74.41 0.48" stroke="#1e1e1e" stroke-width="2" fill="none"></path></g></g><mask></mask><g stroke-linecap="round"><g transform="translate(535.4414079969989 351.10307954934717) rotate(0 -34.70306939169029 0.9706561486359533)"><path d="M-0.37 0.37 C-12.07 0.61, -58.43 0.4, -70.09 0.83 M1.63 -0.48 C-9.68 -0.08, -56.15 1.51, -67.73 1.78" stroke="#1e1e1e" stroke-width="2" fill="none"></path></g><g transform="translate(535.4414079969989 351.10307954934717) rotate(0 -34.70306939169029 0.9706561486359533)"><path d="M-23.83 9.02 C-15.96 5.3, -11.23 2.29, -0.37 0.37 M-23.83 9.02 C-14.98 5.47, -5.74 3.36, -0.37 0.37" stroke="#1e1e1e" stroke-width="2" fill="none"></path></g><g transform="translate(535.4414079969989 351.10307954934717) rotate(0 -34.70306939169029 0.9706561486359533)"><path d="M-23.9 -8.08 C-16.1 -6.55, -11.34 -4.3, -0.37 0.37 M-23.9 -8.08 C-14.86 -5.06, -5.59 -0.61, -0.37 0.37" stroke="#1e1e1e" stroke-width="2" fill="none"></path></g><g transform="translate(535.4414079969989 351.10307954934717) rotate(0 -34.70306939169029 0.9706561486359533)"><path d="M-44.51 -7.46 C-51.06 -5.83, -60.67 -3.34, -67.73 1.78 M-44.51 -7.46 C-53.41 -4.35, -62.11 0.4, -67.73 1.78" stroke="#1e1e1e" stroke-width="2" fill="none"></path></g><g transform="translate(535.4414079969989 351.10307954934717) rotate(0 -34.70306939169029 0.9706561486359533)"><path d="M-44 9.63 C-50.63 6.01, -60.39 3.25, -67.73 1.78 M-44 9.63 C-53.26 6.18, -62.15 4.37, -67.73 1.78" stroke="#1e1e1e" stroke-width="2" fill="none"></path></g></g><mask></mask><g stroke-linecap="round"><g transform="translate(534.4414079969989 477.10307954934717) rotate(0 -34.70306939169029 0.9706561486359533)"><path d="M-0.68 -1.11 C-12.34 -0.68, -59.03 2.53, -70.3 2.95 M1.16 0.92 C-10.09 1, -56.45 1.11, -68.06 1.36" stroke="#1e1e1e" stroke-width="2" fill="none"></path></g><g transform="translate(534.4414079969989 477.10307954934717) rotate(0 -34.70306939169029 0.9706561486359533)"><path d="M-23.63 8.82 C-19.34 4.79, -9.63 5.49, -0.68 -1.11 M-23.63 8.82 C-17.62 7.24, -12.02 3.54, -0.68 -1.11" stroke="#1e1e1e" stroke-width="2" fill="none"></path></g><g transform="translate(534.4414079969989 477.10307954934717) rotate(0 -34.70306939169029 0.9706561486359533)"><path d="M-24.64 -8.25 C-20.02 -7.68, -10.05 -2.39, -0.68 -1.11 M-24.64 -8.25 C-18.39 -5.48, -12.53 -4.84, -0.68 -1.11" stroke="#1e1e1e" stroke-width="2" fill="none"></path></g><g transform="translate(534.4414079969989 477.10307954934717) rotate(0 -34.70306939169029 0.9706561486359533)"><path d="M-44.66 -7.44 C-52.78 -6.7, -55.54 -0.96, -68.06 1.36 M-44.66 -7.44 C-50.46 -4.41, -56.65 -3.35, -68.06 1.36" stroke="#1e1e1e" stroke-width="2" fill="none"></path></g><g transform="translate(534.4414079969989 477.10307954934717) rotate(0 -34.70306939169029 0.9706561486359533)"><path d="M-44.47 9.66 C-52.7 5.8, -55.51 6.94, -68.06 1.36 M-44.47 9.66 C-50.31 8.34, -56.55 5.05, -68.06 1.36" stroke="#1e1e1e" stroke-width="2" fill="none"></path></g></g><mask></mask><g stroke-linecap="round"><g transform="translate(694.3176439454763 90.32854850221477) rotate(0 -34.70306939169029 0.9706561486359533)"><path d="M0.14 1.01 C-11.7 1.27, -58.6 1.24, -70.3 1.23 M-1.24 0.49 C-12.78 0.93, -56.4 2.18, -68.06 2.39" stroke="#1e1e1e" stroke-width="2" fill="none"></path></g><g transform="translate(694.3176439454763 90.32854850221477) rotate(0 -34.70306939169029 0.9706561486359533)"><path d="M-23.31 9.66 C-13.06 4.98, -7.39 2.19, 0.14 1.01 M-23.31 9.66 C-17.5 8.97, -13.31 6.74, 0.14 1.01" stroke="#1e1e1e" stroke-width="2" fill="none"></path></g><g transform="translate(694.3176439454763 90.32854850221477) rotate(0 -34.70306939169029 0.9706561486359533)"><path d="M-23.38 -7.44 C-13.17 -5.89, -7.47 -2.46, 0.14 1.01 M-23.38 -7.44 C-17.56 -4.42, -13.35 -2.94, 0.14 1.01" stroke="#1e1e1e" stroke-width="2" fill="none"></path></g><g transform="translate(694.3176439454763 90.32854850221477) rotate(0 -34.70306939169029 0.9706561486359533)"><path d="M-44.78 -6.73 C-51.61 -4.87, -62.96 -1.2, -68.06 2.39 M-44.78 -6.73 C-49.11 -4, -55.04 -2.38, -68.06 2.39" stroke="#1e1e1e" stroke-width="2" fill="none"></path></g><g transform="translate(694.3176439454763 90.32854850221477) rotate(0 -34.70306939169029 0.9706561486359533)"><path d="M-44.37 10.37 C-51.3 6, -62.79 3.44, -68.06 2.39 M-44.37 10.37 C-48.78 9.38, -54.8 7.3, -68.06 2.39" stroke="#1e1e1e" stroke-width="2" fill="none"></path></g></g><mask></mask><g stroke-linecap="round"><g transform="translate(691.4414079969989 207.10307954934714) rotate(0 -34.70306939169029 0.9706561486359533)"><path d="M-0.9 -0.72 C-12.6 -0.73, -58.66 0.69, -70.09 0.94 M0.83 1.52 C-10.49 2.15, -55.89 1.95, -67.74 1.96" stroke="#1e1e1e" stroke-width="2" fill="none"></path></g><g transform="translate(691.4414079969989 207.10307954934714) rotate(0 -34.70306939169029 0.9706561486359533)"><path d="M-24.19 8.37 C-18.19 4.57, -11.39 2.79, -0.9 -0.72 M-24.19 8.37 C-19.63 6.89, -14.39 3.79, -0.9 -0.72" stroke="#1e1e1e" stroke-width="2" fill="none"></path></g><g transform="translate(691.4414079969989 207.10307954934714) rotate(0 -34.70306939169029 0.9706561486359533)"><path d="M-24.58 -8.72 C-18.32 -7.19, -11.4 -3.63, -0.9 -0.72 M-24.58 -8.72 C-19.82 -6.69, -14.5 -6.28, -0.9 -0.72" stroke="#1e1e1e" stroke-width="2" fill="none"></path></g><g transform="translate(691.4414079969989 207.10307954934714) rotate(0 -34.70306939169029 0.9706561486359533)"><path d="M-44.23 -6.56 C-52.69 -5.22, -60.5 -1.5, -67.74 1.96 M-44.23 -6.56 C-49.17 -3.97, -53.55 -3.46, -67.74 1.96" stroke="#1e1e1e" stroke-width="2" fill="none"></path></g><g transform="translate(691.4414079969989 207.10307954934714) rotate(0 -34.70306939169029 0.9706561486359533)"><path d="M-44.26 10.54 C-52.85 6.54, -60.65 4.93, -67.74 1.96 M-44.26 10.54 C-49.31 9.61, -53.69 6.61, -67.74 1.96" stroke="#1e1e1e" stroke-width="2" fill="none"></path></g></g><mask></mask><g stroke-linecap="round"><g transform="translate(689.4414079969989 352.1030795493471) rotate(0 -34.70306939169029 0.9706561486359533)"><path d="M-0.68 -1 C-12.11 -0.74, -58.15 0.12, -69.45 0.81 M1.16 1.09 C-10.35 1.51, -58.76 1.7, -70.43 1.75" stroke="#1e1e1e" stroke-width="2" fill="none"></path></g><g transform="translate(689.4414079969989 352.1030795493471) rotate(0 -34.70306939169029 0.9706561486359533)"><path d="M-23.98 8.08 C-20.34 6.09, -15.32 5.57, -0.68 -1 M-23.98 8.08 C-14.44 3.71, -5.87 -0.13, -0.68 -1" stroke="#1e1e1e" stroke-width="2" fill="none"></path></g><g transform="translate(689.4414079969989 352.1030795493471) rotate(0 -34.70306939169029 0.9706561486359533)"><path d="M-24.37 -9.01 C-20.74 -7.15, -15.63 -3.82, -0.68 -1 M-24.37 -9.01 C-14.7 -6.6, -5.98 -3.67, -0.68 -1" stroke="#1e1e1e" stroke-width="2" fill="none"></path></g><g transform="translate(689.4414079969989 352.1030795493471) rotate(0 -34.70306939169029 0.9706561486359533)"><path d="M-46.97 -6.91 C-53.97 -5.17, -59.48 -1.69, -70.43 1.75 M-46.97 -6.91 C-56 -3.95, -65.97 -0.76, -70.43 1.75" stroke="#1e1e1e" stroke-width="2" fill="none"></path></g><g transform="translate(689.4414079969989 352.1030795493471) rotate(0 -34.70306939169029 0.9706561486359533)"><path d="M-46.9 10.2 C-53.81 8.08, -59.34 7.7, -70.43 1.75 M-46.9 10.2 C-55.93 6.37, -65.93 2.78, -70.43 1.75" stroke="#1e1e1e" stroke-width="2" fill="none"></path></g></g><mask></mask><g stroke-linecap="round"><g transform="translate(688.4414079969989 478.1030795493471) rotate(0 -34.70306939169029 0.9706561486359533)"><path d="M-0.05 -1.13 C-11.36 -0.45, -56.94 2.46, -68.54 3.1 M-1.53 0.89 C-12.86 1.35, -57.54 1.61, -69.03 1.59" stroke="#1e1e1e" stroke-width="2" fill="none"></path></g><g transform="translate(688.4414079969989 478.1030795493471) rotate(0 -34.70306939169029 0.9706561486359533)"><path d="M-22.96 8.86 C-19.2 7.89, -9.81 3.68, -0.05 -1.13 M-22.96 8.86 C-15.09 4.53, -5.86 1.9, -0.05 -1.13" stroke="#1e1e1e" stroke-width="2" fill="none"></path></g><g transform="translate(688.4414079969989 478.1030795493471) rotate(0 -34.70306939169029 0.9706561486359533)"><path d="M-24.03 -8.2 C-20.15 -5.03, -10.5 -5.09, -0.05 -1.13 M-24.03 -8.2 C-15.73 -6.37, -6.11 -2.83, -0.05 -1.13" stroke="#1e1e1e" stroke-width="2" fill="none"></path></g><g transform="translate(688.4414079969989 478.1030795493471) rotate(0 -34.70306939169029 0.9706561486359533)"><path d="M-45.56 -7.03 C-53.22 -3.5, -55.11 -3.19, -69.03 1.59 M-45.56 -7.03 C-54.4 -4.93, -61.93 -0.83, -69.03 1.59" stroke="#1e1e1e" stroke-width="2" fill="none"></path></g><g transform="translate(688.4414079969989 478.1030795493471) rotate(0 -34.70306939169029 0.9706561486359533)"><path d="M-45.51 10.07 C-53.05 9.44, -54.94 5.6, -69.03 1.59 M-45.51 10.07 C-54.42 5.99, -61.96 3.91, -69.03 1.59" stroke="#1e1e1e" stroke-width="2" fill="none"></path></g></g><mask></mask><g stroke-linecap="round"><g transform="translate(887.0790436828809 41.50458769819605) rotate(0 -55.71525968958747 23.68114711237564)"><path d="M0.34 -1.06 C-17.97 6.87, -92.31 40.61, -110.75 48.56 M-0.93 1 C-19.27 8.55, -93.09 39.3, -111.33 47.06" stroke="#1e1e1e" stroke-width="2" fill="none"></path></g><g transform="translate(887.0790436828809 41.50458769819605) rotate(0 -55.71525968958747 23.68114711237564)"><path d="M-17.61 16.34 C-15.44 13.49, -7.62 10.36, 0.34 -1.06 M-17.61 16.34 C-13.87 11.58, -8.68 7.6, 0.34 -1.06" stroke="#1e1e1e" stroke-width="2" fill="none"></path></g><g transform="translate(887.0790436828809 41.50458769819605) rotate(0 -55.71525968958747 23.68114711237564)"><path d="M-24.59 0.74 C-20.72 1.4, -11.31 1.81, 0.34 -1.06 M-24.59 0.74 C-19.3 -0.27, -12.43 -0.53, 0.34 -1.06" stroke="#1e1e1e" stroke-width="2" fill="none"></path></g><g transform="translate(887.0790436828809 41.50458769819605) rotate(0 -55.71525968958747 23.68114711237564)"><path d="M-92.99 30.08 C-98.77 35.12, -99.18 39.79, -111.33 47.06 M-92.99 30.08 C-98.14 33.32, -101.6 37.54, -111.33 47.06" stroke="#1e1e1e" stroke-width="2" fill="none"></path></g><g transform="translate(887.0790436828809 41.50458769819605) rotate(0 -55.71525968958747 23.68114711237564)"><path d="M-86.36 45.84 C-93.78 47.33, -95.68 48.43, -111.33 47.06 M-86.36 45.84 C-92.99 45.29, -98.03 45.75, -111.33 47.06" stroke="#1e1e1e" stroke-width="2" fill="none"></path></g></g><mask></mask><g transform="translate(647.2440032958984 967.533935546875) rotate(0 90.37799835205078 45)"><text x="180.75599670410156" y="0" font-family="Virgil, Segoe UI Emoji" font-size="36px" fill="#f08c00" text-anchor="end" style="white-space: pre;" direction="ltr" dominant-baseline="text-before-edge">Sinacor</text><text x="180.75599670410156" y="45" font-family="Virgil, Segoe UI Emoji" font-size="36px" fill="#f08c00" text-anchor="end" style="white-space: pre;" direction="ltr" dominant-baseline="text-before-edge">island map</text></g></svg>